Epitaph-Regular.ufo
<glyph name="exclam" format="1">
  <advance width="270"/>
  <unicode hex="0021"/>
  <outline>
    <contour>
      <point x="192" y="188" type="line"/>
      <point x="78" y="188" type="line"/>
      <point x="78" y="700" type="line"/>
      <point x="192" y="700" type="line"/>
    </contour>
    <contour>
      <point x="200" y="0" type="line"/>
      <point x="70" y="0" type="line"/>
      <point x="70" y="129" type="line"/>
      <point x="200" y="129" type="line"/>
    </contour>
  </outline>
</glyph>
<glyph name="quotedbl" format="1">
  <advance width="507"/>
  <unicode hex="0022"/>
  <outline>
    <contour>
      <point x="429" y="431" type="line"/>
      <point x="311" y="431" type="line"/>
      <point x="311" y="700" type="line"/>
      <point x="429" y="700" type="line"/>
    </contour>
    <contour>
      <point x="196" y="431" type="line"/>
      <point x="78" y="431" type="line"/>
      <point x="78" y="700" type="line"/>
      <point x="196" y="700" type="line"/>
    </contour>
  </outline>
</glyph>
<glyph name="numbersign" format="1">
  <advance width="630"/>
  <unicode hex="0023"/>
  <outline>
    <contour>
      <point x="590" y="238" type="line"/>
      <point x="500" y="213" type="line"/>
      <point x="500" y="0" type="line"/>
      <point x="387" y="0" type="line"/>
      <point x="387" y="181" type="line"/>
      <point x="243" y="140" type="line"/>
      <point x="243" y="0" type="line"/>
      <point x="130" y="0" type="line"/>
      <point x="130" y="108" type="line"/>
      <point x="40" y="83" type="line"/>
      <point x="40" y="198" type="line"/>
      <point x="130" y="223" type="line"/>
      <point x="130" y="382" type="line"/>
      <point x="40" y="357" type="line"/>
      <point x="40" y="472" type="line"/>
      <point x="130" y="497" type="line"/>
      <point x="130" y="700" type="line"/>
      <point x="243" y="700" type="line"/>
      <point x="243" y="529" type="line"/>
      <point x="387" y="569" type="line"/>
      <point x="387" y="700" type="line"/>
      <point x="500" y="700" type="line"/>
      <point x="500" y="601" type="line"/>
      <point x="590" y="626" type="line"/>
      <point x="590" y="512" type="line"/>
      <point x="500" y="487" type="line"/>
      <point x="500" y="327" type="line"/>
      <point x="590" y="352" type="line"/>
    </contour>
    <contour>
      <point x="387" y="295" type="line"/>
      <point x="387" y="455" type="line"/>
      <point x="243" y="414" type="line"/>
      <point x="243" y="255" type="line"/>
    </contour>
  </outline>
</glyph>
<glyph name="percent" format="1">
  <advance width="1055"/>
  <unicode hex="0025"/>
  <outline>
    <contour>
      <point x="434" y="462" type="curve" smooth="yes"/>
      <point x="434" y="315"/>
      <point x="365" y="212"/>
      <point x="236" y="212" type="curve" smooth="yes"/>
      <point x="109" y="212"/>
      <point x="40" y="314"/>
      <point x="40" y="460" type="curve" smooth="yes"/>
      <point x="40" y="607"/>
      <point x="109" y="710"/>
      <point x="238" y="710" type="curve" smooth="yes"/>
      <point x="365" y="710"/>
      <point x="434" y="608"/>
    </contour>
    <contour>
      <point x="728" y="700" type="line"/>
      <point x="428" y="0" type="line"/>
      <point x="323" y="0" type="line"/>
      <point x="623" y="700" type="line"/>
    </contour>
    <contour>
      <point x="1015" y="240" type="curve" smooth="yes"/>
      <point x="1015" y="93"/>
      <point x="946" y="-10"/>
      <point x="817" y="-10" type="curve" smooth="yes"/>
      <point x="690" y="-10"/>
      <point x="621" y="92"/>
      <point x="621" y="238" type="curve" smooth="yes"/>
      <point x="621" y="385"/>
      <point x="690" y="488"/>
      <point x="819" y="488" type="curve" smooth="yes"/>
      <point x="946" y="488"/>
      <point x="1015" y="386"/>
    </contour>
    <contour>
      <point x="323" y="460" type="curve" smooth="yes"/>
      <point x="323" y="549"/>
      <point x="301" y="605"/>
      <point x="236" y="605" type="curve" smooth="yes"/>
      <point x="173" y="605"/>
      <point x="151" y="550"/>
      <point x="151" y="462" type="curve" smooth="yes"/>
      <point x="151" y="373"/>
      <point x="173" y="317"/>
      <point x="238" y="317" type="curve" smooth="yes"/>
      <point x="301" y="317"/>
      <point x="323" y="372"/>
    </contour>
    <contour>
      <point x="904" y="238" type="curve" smooth="yes"/>
      <point x="904" y="327"/>
      <point x="882" y="383"/>
      <point x="817" y="383" type="curve" smooth="yes"/>
      <point x="754" y="383"/>
      <point x="732" y="328"/>
      <point x="732" y="240" type="curve" smooth="yes"/>
      <point x="732" y="151"/>
      <point x="754" y="95"/>
      <point x="819" y="95" type="curve" smooth="yes"/>
      <point x="882" y="95"/>
      <point x="904" y="150"/>
    </contour>
  </outline>
</glyph>
<glyph name="ampersand" format="1">
  <advance width="600"/>
  <unicode hex="0026"/>
  <outline>
    <contour>
      <point x="563" y="1" type="line"/>
      <point x="442" y="1" type="line"/>
      <point x="413" y="55" type="line"/>
      <point x="369" y="12"/>
      <point x="313" y="-10"/>
      <point x="241" y="-10" type="curve" smooth="yes"/>
      <point x="126" y="-10"/>
      <point x="40" y="64"/>
      <point x="40" y="193" type="curve" smooth="yes"/>
      <point x="40" y="319"/>
      <point x="109" y="385"/>
      <point x="216" y="416" type="curve"/>
      <point x="62" y="700" type="line"/>
      <point x="471" y="700" type="line"/>
      <point x="471" y="592" type="line"/>
      <point x="252" y="592" type="line"/>
      <point x="412" y="287" type="line"/>
      <point x="421" y="325"/>
      <point x="429" y="369"/>
      <point x="437" y="420" type="curve"/>
      <point x="548" y="420" type="line"/>
      <point x="532" y="313"/>
      <point x="511" y="225"/>
      <point x="480" y="158" type="curve"/>
    </contour>
    <contour>
      <point x="360" y="152" type="curve"/>
      <point x="268" y="321" type="line"/>
      <point x="193" y="302"/>
      <point x="161" y="259"/>
      <point x="161" y="198" type="curve" smooth="yes"/>
      <point x="161" y="139"/>
      <point x="201" y="103"/>
      <point x="251" y="103" type="curve" smooth="yes"/>
      <point x="300" y="103"/>
      <point x="334" y="117"/>
    </contour>
  </outline>
</glyph>
<glyph name="quotesingle" format="1">
  <advance width="276"/>
  <unicode hex="0027"/>
  <outline>
    <contour>
      <point x="198" y="431" type="line"/>
      <point x="78" y="431" type="line"/>
      <point x="78" y="700" type="line"/>
      <point x="198" y="700" type="line"/>
    </contour>
  </outline>
</glyph>
<glyph name="parenleft" format="1">
  <advance width="340"/>
  <unicode hex="0028"/>
  <outline>
    <contour>
      <point x="293" y="-9" type="line"/>
      <point x="147" y="11"/>
      <point x="50" y="109"/>
      <point x="50" y="350" type="curve" smooth="yes"/>
      <point x="50" y="591"/>
      <point x="147" y="689"/>
      <point x="293" y="709" type="curve"/>
      <point x="293" y="609" type="line"/>
      <point x="223" y="584"/>
      <point x="173" y="535"/>
      <point x="173" y="352" type="curve" smooth="yes"/>
      <point x="173" y="164"/>
      <point x="223" y="116"/>
      <point x="293" y="91" type="curve"/>
    </contour>
  </outline>
</glyph>
<glyph name="parenright" format="1">
  <advance width="340"/>
  <unicode hex="0029"/>
  <outline>
    <contour>
      <point x="290" y="350" type="curve" smooth="yes"/>
      <point x="290" y="109"/>
      <point x="193" y="11"/>
      <point x="47" y="-9" type="curve"/>
      <point x="47" y="91" type="line"/>
      <point x="117" y="116"/>
      <point x="167" y="165"/>
      <point x="167" y="348" type="curve" smooth="yes"/>
      <point x="167" y="536"/>
      <point x="117" y="584"/>
      <point x="47" y="609" type="curve"/>
      <point x="47" y="709" type="line"/>
      <point x="193" y="689"/>
      <point x="290" y="591"/>
    </contour>
  </outline>
</glyph>
<glyph name="asterisk" format="1">
  <advance width="550"/>
  <unicode hex="002A"/>
  <outline>
    <contour>
      <point x="505" y="370" type="curve"/>
      <point x="460" y="282" type="line"/>
      <point x="402" y="298"/>
      <point x="348" y="339"/>
      <point x="319" y="386" type="curve"/>
      <point x="331" y="213" type="line"/>
      <point x="219" y="213" type="line"/>
      <point x="231" y="386" type="line"/>
      <point x="202" y="339"/>
      <point x="148" y="298"/>
      <point x="91" y="282" type="curve"/>
      <point x="45" y="370" type="line"/>
      <point x="102" y="384"/>
      <point x="151" y="413"/>
      <point x="187" y="457" type="curve"/>
      <point x="150" y="500"/>
      <point x="102" y="529"/>
      <point x="45" y="544" type="curve"/>
      <point x="91" y="632" type="line"/>
      <point x="149" y="615"/>
      <point x="203" y="572"/>
      <point x="231" y="527" type="curve"/>
      <point x="219" y="700" type="line"/>
      <point x="331" y="700" type="line"/>
      <point x="319" y="527" type="line"/>
      <point x="347" y="572"/>
      <point x="401" y="615"/>
      <point x="460" y="632" type="curve"/>
      <point x="505" y="544" type="line"/>
      <point x="447" y="529"/>
      <point x="400" y="500"/>
      <point x="363" y="457" type="curve"/>
      <point x="399" y="413"/>
      <point x="447" y="384"/>
    </contour>
  </outline>
</glyph>
<glyph name="plus" format="1">
  <advance width="490"/>
  <unicode hex="002B"/>
  <outline>
    <contour>
      <point x="440" y="301" type="line"/>
      <point x="303" y="301" type="line"/>
      <point x="303" y="158" type="line"/>
      <point x="187" y="158" type="line"/>
      <point x="187" y="301" type="line"/>
      <point x="50" y="301" type="line"/>
      <point x="50" y="413" type="line"/>
      <point x="187" y="413" type="line"/>
      <point x="187" y="557" type="line"/>
      <point x="303" y="557" type="line"/>
      <point x="303" y="413" type="line"/>
      <point x="440" y="413" type="line"/>
    </contour>
  </outline>
</glyph>
<glyph name="comma" format="1">
  <advance width="256"/>
  <unicode hex="002C"/>
  <outline>
    <contour>
      <point x="210" y="133" type="line"/>
      <point x="140" y="-100" type="line"/>
      <point x="20" y="-100" type="line"/>
      <point x="90" y="133" type="line"/>
    </contour>
  </outline>
</glyph>
<glyph name="period" format="1">
  <advance width="256"/>
  <unicode hex="002E"/>
  <outline>
    <contour>
      <point x="195" y="0" type="line"/>
      <point x="61" y="0" type="line"/>
      <point x="61" y="133" type="line"/>
      <point x="195" y="133" type="line"/>
    </contour>
  </outline>
</glyph>
<glyph name="slash" format="1">
  <advance width="400"/>
  <unicode hex="002F"/>
  <outline>
    <contour>
      <point x="363" y="700" type="line"/>
      <point x="153" y="0" type="line"/>
      <point x="37" y="0" type="line"/>
      <point x="247" y="700" type="line"/>
    </contour>
  </outline>
</glyph>
<glyph name="zero" format="1">
  <advance width="554"/>
  <unicode hex="0030"/>
  <outline>
    <contour>
      <point x="514" y="350" type="curve" smooth="yes"/>
      <point x="514" y="129"/>
      <point x="453" y="-10"/>
      <point x="277" y="-10" type="curve" smooth="yes"/>
      <point x="101" y="-10"/>
      <point x="40" y="129"/>
      <point x="40" y="350" type="curve" smooth="yes"/>
      <point x="40" y="571"/>
      <point x="101" y="710"/>
      <point x="277" y="710" type="curve" smooth="yes"/>
      <point x="453" y="710"/>
      <point x="514" y="571"/>
    </contour>
    <contour>
      <point x="390" y="350" type="curve" smooth="yes"/>
      <point x="390" y="523"/>
      <point x="362" y="593"/>
      <point x="277" y="593" type="curve" smooth="yes"/>
      <point x="192" y="593"/>
      <point x="164" y="523"/>
      <point x="164" y="350" type="curve" smooth="yes"/>
      <point x="164" y="177"/>
      <point x="192" y="107"/>
      <point x="277" y="107" type="curve" smooth="yes"/>
      <point x="362" y="107"/>
      <point x="390" y="177"/>
    </contour>
  </outline>
</glyph>
<glyph name="one" format="1">
  <advance width="313"/>
  <unicode hex="0031"/>
  <outline>
    <contour>
      <point x="238" y="0" type="line"/>
      <point x="118" y="0" type="line"/>
      <point x="118" y="559" type="line"/>
      <point x="94" y="551"/>
      <point x="63" y="547"/>
      <point x="28" y="546" type="curve"/>
      <point x="28" y="663" type="line"/>
      <point x="122" y="663"/>
      <point x="183" y="678"/>
      <point x="238" y="714" type="curve"/>
    </contour>
  </outline>
</glyph>
<glyph name="two" format="1">
  <advance width="533"/>
  <unicode hex="0032"/>
  <outline>
    <contour>
      <point x="487" y="514" type="curve" smooth="yes"/>
      <point x="487" y="411"/>
      <point x="435" y="357"/>
      <point x="329" y="293" type="curve" smooth="yes"/>
      <point x="251" y="246"/>
      <point x="183" y="199"/>
      <point x="178" y="107" type="curve"/>
      <point x="478" y="107" type="line"/>
      <point x="478" y="0" type="line"/>
      <point x="41" y="0" type="line"/>
      <point x="41" y="257"/>
      <point x="175" y="332"/>
      <point x="275" y="388" type="curve" smooth="yes"/>
      <point x="341" y="425"/>
      <point x="366" y="458"/>
      <point x="366" y="510" type="curve" smooth="yes"/>
      <point x="366" y="583"/>
      <point x="332" y="606"/>
      <point x="254" y="606" type="curve" smooth="yes"/>
      <point x="217" y="606"/>
      <point x="200" y="600"/>
      <point x="186" y="592" type="curve"/>
      <point x="198" y="562"/>
      <point x="203" y="541"/>
      <point x="203" y="480" type="curve"/>
      <point x="84" y="480" type="line"/>
      <point x="84" y="552"/>
      <point x="77" y="589"/>
      <point x="49" y="633" type="curve"/>
      <point x="96" y="678"/>
      <point x="172" y="710"/>
      <point x="264" y="710" type="curve" smooth="yes"/>
      <point x="409" y="710"/>
      <point x="487" y="640"/>
    </contour>
  </outline>
</glyph>
<glyph name="three" format="1">
  <advance width="517"/>
  <unicode hex="0033"/>
  <outline>
    <contour>
      <point x="481" y="700" type="line"/>
      <point x="299" y="431" type="line"/>
      <point x="308" y="433"/>
      <point x="317" y="434"/>
      <point x="325" y="434" type="curve" smooth="yes"/>
      <point x="417" y="434"/>
      <point x="478" y="356"/>
      <point x="478" y="230" type="curve" smooth="yes"/>
      <point x="478" y="93"/>
      <point x="391" y="-10"/>
      <point x="246" y="-10" type="curve" smooth="yes"/>
      <point x="127" y="-10"/>
      <point x="35" y="73"/>
      <point x="19" y="189" type="curve"/>
      <point x="124" y="243" type="line"/>
      <point x="141" y="158"/>
      <point x="177" y="105"/>
      <point x="253" y="105" type="curve" smooth="yes"/>
      <point x="320" y="105"/>
      <point x="356" y="155"/>
      <point x="356" y="225" type="curve" smooth="yes"/>
      <point x="356" y="302"/>
      <point x="321" y="343"/>
      <point x="274" y="343" type="curve" smooth="yes"/>
      <point x="250" y="343"/>
      <point x="229" y="336"/>
      <point x="212" y="318" type="curve"/>
      <point x="136" y="378" type="line"/>
      <point x="281" y="589" type="line"/>
      <point x="48" y="589" type="line"/>
      <point x="48" y="700" type="line"/>
    </contour>
  </outline>
</glyph>
<glyph name="four" format="1">
  <advance width="544"/>
  <unicode hex="0034"/>
  <outline>
    <contour>
      <point x="516" y="165" type="line"/>
      <point x="435" y="165" type="line"/>
      <point x="435" y="0" type="line"/>
      <point x="320" y="0" type="line"/>
      <point x="320" y="165" type="line"/>
      <point x="12" y="165" type="line"/>
      <point x="251" y="700" type="line"/>
      <point x="376" y="700" type="line"/>
      <point x="185" y="271" type="line"/>
      <point x="320" y="271" type="line"/>
      <point x="320" y="454" type="line"/>
      <point x="435" y="454" type="line"/>
      <point x="435" y="271" type="line"/>
      <point x="516" y="271" type="line"/>
    </contour>
  </outline>
</glyph>
<glyph name="five" format="1">
  <advance width="545"/>
  <unicode hex="0035"/>
  <outline>
    <contour>
      <point x="499" y="259" type="curve" smooth="yes"/>
      <point x="499" y="106"/>
      <point x="426" y="-10"/>
      <point x="266" y="-10" type="curve" smooth="yes"/>
      <point x="127" y="-10"/>
      <point x="48" y="75"/>
      <point x="35" y="204" type="curve"/>
      <point x="144" y="247" type="line"/>
      <point x="155" y="153"/>
      <point x="194" y="107"/>
      <point x="268" y="107" type="curve" smooth="yes"/>
      <point x="349" y="107"/>
      <point x="375" y="172"/>
      <point x="375" y="254" type="curve" smooth="yes"/>
      <point x="375" y="342"/>
      <point x="332" y="382"/>
      <point x="265" y="382" type="curve" smooth="yes"/>
      <point x="219" y="382"/>
      <point x="188" y="365"/>
      <point x="156" y="332" type="curve"/>
      <point x="68" y="378" type="line"/>
      <point x="90" y="700" type="line"/>
      <point x="460" y="700" type="line"/>
      <point x="460" y="584" type="line"/>
      <point x="189" y="584" type="line"/>
      <point x="180" y="464" type="line"/>
      <point x="210" y="482"/>
      <point x="238" y="493"/>
      <point x="296" y="493" type="curve" smooth="yes"/>
      <point x="416" y="493"/>
      <point x="499" y="412"/>
    </contour>
  </outline>
</glyph>
<glyph name="six" format="1">
  <advance width="540"/>
  <unicode hex="0036"/>
  <outline>
    <contour>
      <point x="500" y="229" type="curve" smooth="yes"/>
      <point x="500" y="91"/>
      <point x="424" y="-10"/>
      <point x="279" y="-10" type="curve" smooth="yes"/>
      <point x="104" y="-10"/>
      <point x="40" y="130"/>
      <point x="40" y="342" type="curve" smooth="yes"/>
      <point x="40" y="532"/>
      <point x="102" y="710"/>
      <point x="282" y="710" type="curve" smooth="yes"/>
      <point x="367" y="710"/>
      <point x="426" y="682"/>
      <point x="478" y="618" type="curve"/>
      <point x="404" y="535" type="line"/>
      <point x="361" y="583"/>
      <point x="335" y="597"/>
      <point x="278" y="597" type="curve" smooth="yes"/>
      <point x="192" y="597"/>
      <point x="165" y="500"/>
      <point x="161" y="387" type="curve"/>
      <point x="195" y="421"/>
      <point x="240" y="444"/>
      <point x="288" y="444" type="curve" smooth="yes"/>
      <point x="417" y="444"/>
      <point x="500" y="372"/>
    </contour>
    <contour>
      <point x="380" y="227" type="curve" smooth="yes"/>
      <point x="380" y="293"/>
      <point x="340" y="329"/>
      <point x="284" y="329" type="curve" smooth="yes"/>
      <point x="235" y="329"/>
      <point x="195" y="308"/>
      <point x="164" y="265" type="curve"/>
      <point x="174" y="168"/>
      <point x="206" y="103"/>
      <point x="283" y="103" type="curve" smooth="yes"/>
      <point x="357" y="103"/>
      <point x="380" y="155"/>
    </contour>
  </outline>
</glyph>
<glyph name="seven" format="1">
  <advance width="512"/>
  <unicode hex="0037"/>
  <outline>
    <contour>
      <point x="505" y="700" type="line"/>
      <point x="330" y="452"/>
      <point x="286" y="218"/>
      <point x="286" y="0" type="curve"/>
      <point x="161" y="0" type="line"/>
      <point x="173" y="227"/>
      <point x="215" y="413"/>
      <point x="326" y="603" type="curve"/>
      <point x="164" y="603" type="line"/>
      <point x="168" y="587"/>
      <point x="171" y="570"/>
      <point x="171" y="552" type="curve" smooth="yes"/>
      <point x="171" y="533"/>
      <point x="170" y="513"/>
      <point x="165" y="494" type="curve"/>
      <point x="54" y="469" type="line"/>
      <point x="58" y="491"/>
      <point x="60" y="525"/>
      <point x="60" y="546" type="curve" smooth="yes"/>
      <point x="60" y="606"/>
      <point x="41" y="658"/>
      <point x="16" y="700" type="curve"/>
    </contour>
  </outline>
</glyph>
<glyph name="eight" format="1">
  <advance width="532"/>
  <unicode hex="0038"/>
  <outline>
    <contour>
      <point x="492" y="211" type="curve" smooth="yes"/>
      <point x="492" y="83"/>
      <point x="405" y="-10"/>
      <point x="265" y="-10" type="curve" smooth="yes"/>
      <point x="123" y="-10"/>
      <point x="40" y="80"/>
      <point x="40" y="210" type="curve" smooth="yes"/>
      <point x="40" y="282"/>
      <point x="71" y="336"/>
      <point x="132" y="383" type="curve"/>
      <point x="88" y="412"/>
      <point x="56" y="456"/>
      <point x="56" y="526" type="curve" smooth="yes"/>
      <point x="56" y="641"/>
      <point x="133" y="710"/>
      <point x="267" y="710" type="curve" smooth="yes"/>
      <point x="398" y="710"/>
      <point x="476" y="637"/>
      <point x="476" y="531" type="curve" smooth="yes"/>
      <point x="476" y="460"/>
      <point x="454" y="418"/>
      <point x="402" y="380" type="curve"/>
      <point x="453" y="346"/>
      <point x="492" y="294"/>
    </contour>
    <contour>
      <point x="358" y="521" type="curve" smooth="yes"/>
      <point x="358" y="570"/>
      <point x="327" y="603"/>
      <point x="265" y="603" type="curve" smooth="yes"/>
      <point x="204" y="603"/>
      <point x="174" y="572"/>
      <point x="174" y="528" type="curve" smooth="yes"/>
      <point x="174" y="474"/>
      <point x="208" y="455"/>
      <point x="302" y="424" type="curve"/>
      <point x="340" y="448"/>
      <point x="358" y="478"/>
    </contour>
    <contour>
      <point x="370" y="208" type="curve" smooth="yes"/>
      <point x="370" y="276"/>
      <point x="338" y="305"/>
      <point x="237" y="338" type="curve"/>
      <point x="188" y="307"/>
      <point x="162" y="267"/>
      <point x="162" y="213" type="curve" smooth="yes"/>
      <point x="162" y="145"/>
      <point x="197" y="103"/>
      <point x="267" y="103" type="curve" smooth="yes"/>
      <point x="335" y="103"/>
      <point x="370" y="148"/>
    </contour>
  </outline>
</glyph>
<glyph name="nine" format="1">
  <advance width="540"/>
  <unicode hex="0039"/>
  <outline>
    <contour>
      <point x="500" y="358" type="curve" smooth="yes"/>
      <point x="500" y="168"/>
      <point x="438" y="-10"/>
      <point x="258" y="-10" type="curve" smooth="yes"/>
      <point x="173" y="-10"/>
      <point x="114" y="18"/>
      <point x="62" y="82" type="curve"/>
      <point x="136" y="165" type="line"/>
      <point x="179" y="117"/>
      <point x="205" y="103"/>
      <point x="262" y="103" type="curve" smooth="yes"/>
      <point x="348" y="103"/>
      <point x="375" y="200"/>
      <point x="379" y="313" type="curve"/>
      <point x="345" y="279"/>
      <point x="300" y="256"/>
      <point x="252" y="256" type="curve" smooth="yes"/>
      <point x="123" y="256"/>
      <point x="40" y="328"/>
      <point x="40" y="471" type="curve" smooth="yes"/>
      <point x="40" y="609"/>
      <point x="116" y="710"/>
      <point x="261" y="710" type="curve" smooth="yes"/>
      <point x="436" y="710"/>
      <point x="500" y="570"/>
    </contour>
    <contour>
      <point x="376" y="435" type="curve"/>
      <point x="366" y="532"/>
      <point x="334" y="597"/>
      <point x="257" y="597" type="curve" smooth="yes"/>
      <point x="183" y="597"/>
      <point x="160" y="545"/>
      <point x="160" y="473" type="curve" smooth="yes"/>
      <point x="160" y="407"/>
      <point x="200" y="371"/>
      <point x="256" y="371" type="curve" smooth="yes"/>
      <point x="305" y="371"/>
      <point x="345" y="392"/>
    </contour>
  </outline>
</glyph>
<glyph name="colon" format="1">
  <advance width="256"/>
  <unicode hex="003A"/>
  <outline>
    <contour>
      <point x="195" y="310" type="line"/>
      <point x="61" y="310" type="line"/>
      <point x="61" y="443" type="line"/>
      <point x="195" y="443" type="line"/>
    </contour>
    <contour>
      <point x="195" y="0" type="line"/>
      <point x="61" y="0" type="line"/>
      <point x="61" y="133" type="line"/>
      <point x="195" y="133" type="line"/>
    </contour>
  </outline>
</glyph>
<glyph name="semicolon" format="1">
  <advance width="256"/>
  <unicode hex="003B"/>
  <outline>
    <contour>
      <point x="195" y="310" type="line"/>
      <point x="61" y="310" type="line"/>
      <point x="61" y="443" type="line"/>
      <point x="195" y="443" type="line"/>
    </contour>
    <contour>
      <point x="196" y="133" type="line"/>
      <point x="126" y="-100" type="line"/>
      <point x="6" y="-100" type="line"/>
      <point x="76" y="133" type="line"/>
    </contour>
  </outline>
</glyph>
<glyph name="less" format="1">
  <advance width="460"/>
  <unicode hex="003C"/>
  <outline>
    <contour>
      <point x="408" y="122" type="curve"/>
      <point x="303" y="61" type="line"/>
      <point x="242" y="185"/>
      <point x="142" y="269"/>
      <point x="44" y="306" type="curve"/>
      <point x="44" y="390" type="line"/>
      <point x="142" y="427"/>
      <point x="242" y="511"/>
      <point x="303" y="636" type="curve"/>
      <point x="408" y="576" type="line"/>
      <point x="362" y="475"/>
      <point x="280" y="391"/>
      <point x="185" y="349" type="curve"/>
      <point x="280" y="307"/>
      <point x="362" y="223"/>
    </contour>
  </outline>
</glyph>
<glyph name="equal" format="1">
  <advance width="450"/>
  <unicode hex="003D"/>
  <outline>
    <contour>
      <point x="390" y="394" type="line"/>
      <point x="60" y="394" type="line"/>
      <point x="60" y="510" type="line"/>
      <point x="390" y="510" type="line"/>
    </contour>
    <contour>
      <point x="390" y="175" type="line"/>
      <point x="60" y="175" type="line"/>
      <point x="60" y="291" type="line"/>
      <point x="390" y="291" type="line"/>
    </contour>
  </outline>
</glyph>
<glyph name="greater" format="1">
  <advance width="460"/>
  <unicode hex="003E"/>
  <outline>
    <contour>
      <point x="416" y="307" type="line"/>
      <point x="318" y="270"/>
      <point x="218" y="186"/>
      <point x="157" y="61" type="curve"/>
      <point x="52" y="121" type="line"/>
      <point x="98" y="222"/>
      <point x="180" y="306"/>
      <point x="275" y="348" type="curve"/>
      <point x="180" y="390"/>
      <point x="98" y="474"/>
      <point x="52" y="575" type="curve"/>
      <point x="157" y="636" type="line"/>
      <point x="218" y="512"/>
      <point x="318" y="428"/>
      <point x="416" y="391" type="curve"/>
    </contour>
  </outline>
</glyph>
<glyph name="question" format="1">
  <advance width="493"/>
  <unicode hex="003F"/>
  <outline>
    <contour>
      <point x="458" y="514" type="curve" smooth="yes"/>
      <point x="458" y="416"/>
      <point x="411" y="372"/>
      <point x="364" y="341" type="curve" smooth="yes"/>
      <point x="302" y="300"/>
      <point x="288" y="278"/>
      <point x="288" y="247" type="curve" smooth="yes"/>
      <point x="288" y="222"/>
      <point x="289" y="207"/>
      <point x="293" y="188" type="curve"/>
      <point x="176" y="188" type="line"/>
      <point x="171" y="211"/>
      <point x="169" y="233"/>
      <point x="169" y="259" type="curve" smooth="yes"/>
      <point x="169" y="315"/>
      <point x="192" y="361"/>
      <point x="257" y="400" type="curve" smooth="yes"/>
      <point x="309" y="431"/>
      <point x="337" y="452"/>
      <point x="337" y="510" type="curve" smooth="yes"/>
      <point x="337" y="583"/>
      <point x="303" y="607"/>
      <point x="225" y="607" type="curve" smooth="yes"/>
      <point x="188" y="607"/>
      <point x="168" y="600"/>
      <point x="154" y="592" type="curve"/>
      <point x="166" y="562"/>
      <point x="171" y="541"/>
      <point x="171" y="480" type="curve"/>
      <point x="55" y="480" type="line"/>
      <point x="55" y="552"/>
      <point x="48" y="589"/>
      <point x="20" y="633" type="curve"/>
      <point x="67" y="678"/>
      <point x="143" y="710"/>
      <point x="235" y="710" type="curve" smooth="yes"/>
      <point x="380" y="710"/>
      <point x="458" y="640"/>
    </contour>
    <contour>
      <point x="300" y="0" type="line"/>
      <point x="170" y="0" type="line"/>
      <point x="170" y="129" type="line"/>
      <point x="300" y="129" type="line"/>
    </contour>
  </outline>
</glyph>
<glyph name="A" format="1">
  <advance width="604"/>
  <unicode hex="0041"/>
  <outline>
    <contour>
      <point x="567" y="0" type="line"/>
      <point x="451" y="0" type="line"/>
      <point x="403" y="188" type="line"/>
      <point x="182" y="118" type="line"/>
      <point x="153" y="0" type="line"/>
      <point x="37" y="0" type="line"/>
      <point x="187" y="589" type="line"/>
      <point x="82" y="589" type="line"/>
      <point x="82" y="700" type="line"/>
      <point x="522" y="700" type="line"/>
      <point x="522" y="589" type="line"/>
      <point x="415" y="589" type="line"/>
    </contour>
    <contour>
      <point x="375" y="296" type="line"/>
      <point x="298" y="597" type="line"/>
      <point x="212" y="243" type="line"/>
    </contour>
  </outline>
</glyph>
<glyph name="B" format="1">
  <advance width="590"/>
  <unicode hex="0042"/>
  <outline>
    <contour>
      <point x="550" y="208" type="curve" smooth="yes"/>
      <point x="550" y="75"/>
      <point x="469" y="0"/>
      <point x="313" y="0" type="curve" smooth="yes"/>
      <point x="70" y="0" type="line"/>
      <point x="70" y="700" type="line"/>
      <point x="303" y="700" type="line" smooth="yes"/>
      <point x="433" y="700"/>
      <point x="510" y="648"/>
      <point x="510" y="528" type="curve" smooth="yes"/>
      <point x="510" y="468"/>
      <point x="489" y="426"/>
      <point x="449" y="395" type="curve"/>
      <point x="506" y="363"/>
      <point x="550" y="307"/>
    </contour>
    <contour>
      <point x="432" y="208" type="curve" smooth="yes"/>
      <point x="432" y="270"/>
      <point x="408" y="297"/>
      <point x="369" y="317" type="curve"/>
      <point x="224" y="218" type="line"/>
      <point x="224" y="348" type="line"/>
      <point x="330" y="420" type="line" smooth="yes"/>
      <point x="375" y="450"/>
      <point x="392" y="480"/>
      <point x="392" y="522" type="curve" smooth="yes"/>
      <point x="392" y="558"/>
      <point x="368" y="586"/>
      <point x="303" y="586" type="curve" smooth="yes"/>
      <point x="188" y="586" type="line"/>
      <point x="188" y="114" type="line"/>
      <point x="323" y="114" type="line" smooth="yes"/>
      <point x="398" y="114"/>
      <point x="432" y="158"/>
    </contour>
  </outline>
</glyph>
<glyph name="C" format="1">
  <advance width="555"/>
  <unicode hex="0043"/>
  <outline>
    <contour>
      <point x="516" y="195" type="curve" smooth="yes"/>
      <point x="516" y="80"/>
      <point x="439" y="-10"/>
      <point x="293" y="-10" type="curve" smooth="yes"/>
      <point x="117" y="-10"/>
      <point x="40" y="129"/>
      <point x="40" y="350" type="curve" smooth="yes"/>
      <point x="40" y="578"/>
      <point x="118" y="710"/>
      <point x="295" y="710" type="curve" smooth="yes"/>
      <point x="385" y="710"/>
      <point x="463" y="679"/>
      <point x="504" y="626" type="curve"/>
      <point x="472" y="584"/>
      <point x="459" y="540"/>
      <point x="459" y="480" type="curve"/>
      <point x="342" y="480" type="line"/>
      <point x="342" y="515"/>
      <point x="352" y="552"/>
      <point x="369" y="578" type="curve"/>
      <point x="354" y="588"/>
      <point x="330" y="593"/>
      <point x="293" y="593" type="curve" smooth="yes"/>
      <point x="198" y="593"/>
      <point x="164" y="513"/>
      <point x="164" y="352" type="curve" smooth="yes"/>
      <point x="164" y="202"/>
      <point x="195" y="107"/>
      <point x="295" y="107" type="curve" smooth="yes"/>
      <point x="365" y="107"/>
      <point x="402" y="147"/>
      <point x="402" y="213" type="curve" smooth="yes"/>
      <point x="402" y="235"/>
      <point x="397" y="263"/>
      <point x="383" y="289" type="curve"/>
      <point x="502" y="276" type="line"/>
      <point x="512" y="249"/>
      <point x="516" y="222"/>
    </contour>
  </outline>
</glyph>
<glyph name="D" format="1">
  <advance width="573"/>
  <unicode hex="0044"/>
  <outline>
    <contour>
      <point x="528" y="352" type="curve" smooth="yes"/>
      <point x="528" y="116"/>
      <point x="459" y="0"/>
      <point x="269" y="0" type="curve" smooth="yes"/>
      <point x="70" y="0" type="line"/>
      <point x="70" y="700" type="line"/>
      <point x="271" y="700" type="line" smooth="yes"/>
      <point x="465" y="700"/>
      <point x="528" y="573"/>
    </contour>
    <contour>
      <point x="404" y="350" type="curve" smooth="yes"/>
      <point x="404" y="532"/>
      <point x="361" y="584"/>
      <point x="261" y="584" type="curve" smooth="yes"/>
      <point x="190" y="584" type="line"/>
      <point x="190" y="116" type="line"/>
      <point x="261" y="116" type="line" smooth="yes"/>
      <point x="360" y="116"/>
      <point x="404" y="159"/>
    </contour>
  </outline>
</glyph>
<glyph name="E" format="1">
  <advance width="525"/>
  <unicode hex="0045"/>
  <outline>
    <contour>
      <point x="484" y="0" type="line"/>
      <point x="70" y="0" type="line"/>
      <point x="70" y="700" type="line"/>
      <point x="479" y="700" type="line"/>
      <point x="479" y="586" type="line"/>
      <point x="190" y="586" type="line"/>
      <point x="190" y="381" type="line"/>
      <point x="354" y="457" type="line"/>
      <point x="354" y="331" type="line"/>
      <point x="190" y="254" type="line"/>
      <point x="190" y="114" type="line"/>
      <point x="484" y="114" type="line"/>
    </contour>
  </outline>
</glyph>
<glyph name="F" format="1">
  <advance width="503"/>
  <unicode hex="0046"/>
  <outline>
    <contour>
      <point x="479" y="586" type="line"/>
      <point x="190" y="586" type="line"/>
      <point x="190" y="363" type="line"/>
      <point x="364" y="447" type="line"/>
      <point x="364" y="321" type="line"/>
      <point x="190" y="234" type="line"/>
      <point x="190" y="0" type="line"/>
      <point x="70" y="0" type="line"/>
      <point x="70" y="700" type="line"/>
      <point x="479" y="700" type="line"/>
    </contour>
  </outline>
</glyph>
<glyph name="G" format="1">
  <advance width="582"/>
  <unicode hex="0047"/>
  <outline>
    <contour>
      <point x="540" y="247" type="line" smooth="yes"/>
      <point x="540" y="61"/>
      <point x="459" y="-10"/>
      <point x="292" y="-10" type="curve" smooth="yes"/>
      <point x="118" y="-10"/>
      <point x="40" y="129"/>
      <point x="40" y="350" type="curve" smooth="yes"/>
      <point x="40" y="571"/>
      <point x="120" y="710"/>
      <point x="296" y="710" type="curve" smooth="yes"/>
      <point x="421" y="710"/>
      <point x="490" y="665"/>
      <point x="531" y="612" type="curve"/>
      <point x="494" y="572"/>
      <point x="486" y="525"/>
      <point x="486" y="466" type="curve"/>
      <point x="369" y="466" type="line"/>
      <point x="369" y="505"/>
      <point x="372" y="542"/>
      <point x="389" y="572" type="curve"/>
      <point x="371" y="585"/>
      <point x="344" y="593"/>
      <point x="295" y="593" type="curve" smooth="yes"/>
      <point x="195" y="593"/>
      <point x="164" y="502"/>
      <point x="164" y="352" type="curve" smooth="yes"/>
      <point x="164" y="202"/>
      <point x="196" y="107"/>
      <point x="296" y="107" type="curve" smooth="yes"/>
      <point x="396" y="107"/>
      <point x="420" y="146"/>
      <point x="420" y="226" type="curve"/>
      <point x="320" y="226" type="line"/>
      <point x="320" y="338" type="line"/>
      <point x="540" y="338" type="line"/>
    </contour>
  </outline>
</glyph>
<glyph name="H" format="1">
  <advance width="610"/>
  <unicode hex="0048"/>
  <outline>
    <contour>
      <point x="540" y="0" type="line"/>
      <point x="420" y="0" type="line"/>
      <point x="420" y="350" type="line"/>
      <point x="190" y="243" type="line"/>
      <point x="190" y="0" type="line"/>
      <point x="70" y="0" type="line"/>
      <point x="70" y="700" type="line"/>
      <point x="190" y="700" type="line"/>
      <point x="190" y="369" type="line"/>
      <point x="420" y="475" type="line"/>
      <point x="420" y="700" type="line"/>
      <point x="540" y="700" type="line"/>
    </contour>
  </outline>
</glyph>
<glyph name="J" format="1">
  <advance width="480"/>
  <unicode hex="004A"/>
  <outline>
    <contour>
      <point x="415" y="250" type="line" smooth="yes"/>
      <point x="415" y="87"/>
      <point x="375" y="-10"/>
      <point x="222" y="-10" type="curve" smooth="yes"/>
      <point x="90" y="-10"/>
      <point x="29" y="68"/>
      <point x="29" y="167" type="curve" smooth="yes"/>
      <point x="29" y="211"/>
      <point x="32" y="232"/>
      <point x="37" y="249" type="curve"/>
      <point x="157" y="263" type="line"/>
      <point x="152" y="243"/>
      <point x="150" y="217"/>
      <point x="150" y="196" type="curve" smooth="yes"/>
      <point x="150" y="129"/>
      <point x="173" y="107"/>
      <point x="224" y="107" type="curve" smooth="yes"/>
      <point x="279" y="107"/>
      <point x="295" y="143"/>
      <point x="295" y="248" type="curve" smooth="yes"/>
      <point x="295" y="700" type="line"/>
      <point x="415" y="700" type="line"/>
    </contour>
  </outline>
</glyph>
<glyph name="K" format="1">
  <advance width="600"/>
  <unicode hex="004B"/>
  <outline>
    <contour>
      <point x="570" y="0" type="line"/>
      <point x="437" y="0" type="line"/>
      <point x="275" y="359" type="line"/>
      <point x="190" y="268" type="line"/>
      <point x="190" y="0" type="line"/>
      <point x="70" y="0" type="line"/>
      <point x="70" y="700" type="line"/>
      <point x="190" y="700" type="line"/>
      <point x="190" y="423" type="line"/>
      <point x="389" y="637" type="line" smooth="yes"/>
      <point x="439" y="691"/>
      <point x="471" y="705"/>
      <point x="552" y="705" type="curve"/>
      <point x="552" y="600" type="line"/>
      <point x="516" y="600"/>
      <point x="491" y="590"/>
      <point x="441" y="537" type="curve" smooth="yes"/>
      <point x="366" y="457" type="line"/>
    </contour>
  </outline>
</glyph>
<glyph name="L" format="1">
  <advance width="498"/>
  <unicode hex="004C"/>
  <outline>
    <contour>
      <point x="468" y="0" type="line"/>
      <point x="70" y="0" type="line"/>
      <point x="70" y="700" type="line"/>
      <point x="190" y="700" type="line"/>
      <point x="190" y="116" type="line"/>
      <point x="468" y="116" type="line"/>
    </contour>
  </outline>
</glyph>
<glyph name="M" format="1">
  <advance width="824"/>
  <unicode hex="004D"/>
  <outline>
    <contour>
      <point x="759" y="0" type="line"/>
      <point x="643" y="0" type="line"/>
      <point x="594" y="493" type="line"/>
      <point x="502" y="364"/>
      <point x="466" y="171"/>
      <point x="466" y="0" type="curve"/>
      <point x="358" y="0" type="line"/>
      <point x="358" y="167"/>
      <point x="322" y="364"/>
      <point x="230" y="493" type="curve"/>
      <point x="181" y="0" type="line"/>
      <point x="65" y="0" type="line"/>
      <point x="123" y="579" type="line"/>
      <point x="105" y="587"/>
      <point x="86" y="593"/>
      <point x="66" y="596" type="curve"/>
      <point x="66" y="710" type="line"/>
      <point x="248" y="710"/>
      <point x="364" y="537"/>
      <point x="411" y="307" type="curve"/>
      <point x="460" y="537"/>
      <point x="577" y="710"/>
      <point x="758" y="710" type="curve"/>
      <point x="758" y="596" type="line"/>
      <point x="738" y="593"/>
      <point x="719" y="587"/>
      <point x="701" y="579" type="curve"/>
    </contour>
  </outline>
</glyph>
<glyph name="N" format="1">
  <advance width="599"/>
  <unicode hex="004E"/>
  <outline>
    <contour>
      <point x="529" y="0" type="line"/>
      <point x="414" y="0" type="line"/>
      <point x="382" y="168"/>
      <point x="309" y="332"/>
      <point x="203" y="459" type="curve"/>
      <point x="185" y="0" type="line"/>
      <point x="70" y="0" type="line"/>
      <point x="97" y="554" type="line"/>
      <point x="81" y="565"/>
      <point x="62" y="575"/>
      <point x="45" y="582" type="curve"/>
      <point x="45" y="710" type="line"/>
      <point x="216" y="668"/>
      <point x="354" y="492"/>
      <point x="413" y="327" type="curve"/>
      <point x="413" y="700" type="line"/>
      <point x="529" y="700" type="line"/>
    </contour>
  </outline>
</glyph>
<glyph name="O" format="1">
  <advance width="590"/>
  <unicode hex="004F"/>
  <outline>
    <contour>
      <point x="550" y="351" type="curve" smooth="yes"/>
      <point x="550" y="130"/>
      <point x="470" y="-10"/>
      <point x="294" y="-10" type="curve" smooth="yes"/>
      <point x="118" y="-10"/>
      <point x="40" y="128"/>
      <point x="40" y="349" type="curve" smooth="yes"/>
      <point x="40" y="570"/>
      <point x="120" y="710"/>
      <point x="296" y="710" type="curve" smooth="yes"/>
      <point x="472" y="710"/>
      <point x="550" y="572"/>
    </contour>
    <contour>
      <point x="427" y="349" type="curve" smooth="yes"/>
      <point x="427" y="500"/>
      <point x="394" y="594"/>
      <point x="294" y="594" type="curve" smooth="yes"/>
      <point x="194" y="594"/>
      <point x="163" y="502"/>
      <point x="163" y="351" type="curve" smooth="yes"/>
      <point x="163" y="200"/>
      <point x="196" y="106"/>
      <point x="296" y="106" type="curve" smooth="yes"/>
      <point x="396" y="106"/>
      <point x="427" y="198"/>
    </contour>
  </outline>
</glyph>
<glyph name="P" format="1">
  <advance width="564"/>
  <unicode hex="0050"/>
  <outline>
    <contour>
      <point x="540" y="502" type="curve" smooth="yes"/>
      <point x="540" y="330"/>
      <point x="414" y="285"/>
      <point x="224" y="234" type="curve"/>
      <point x="224" y="352" type="line"/>
      <point x="377" y="391"/>
      <point x="420" y="425"/>
      <point x="420" y="492" type="curve" smooth="yes"/>
      <point x="420" y="555"/>
      <point x="385" y="585"/>
      <point x="310" y="585" type="curve" smooth="yes"/>
      <point x="190" y="585" type="line"/>
      <point x="190" y="0" type="line"/>
      <point x="70" y="0" type="line"/>
      <point x="70" y="700" type="line"/>
      <point x="313" y="700" type="line" smooth="yes"/>
      <point x="458" y="700"/>
      <point x="540" y="630"/>
    </contour>
  </outline>
</glyph>
<glyph name="Q" format="1">
  <advance width="590"/>
  <unicode hex="0051"/>
  <outline>
    <contour>
      <point x="555" y="-101" type="line"/>
      <point x="542" y="-148"/>
      <point x="513" y="-187"/>
      <point x="430" y="-187" type="curve" smooth="yes"/>
      <point x="394" y="-187"/>
      <point x="350" y="-178"/>
      <point x="322" y="-171" type="curve" smooth="yes"/>
      <point x="119" y="-118" type="line"/>
      <point x="119" y="-59" type="line"/>
      <point x="183" y="13" type="line"/>
      <point x="85" y="62"/>
      <point x="40" y="181"/>
      <point x="40" y="349" type="curve" smooth="yes"/>
      <point x="40" y="570"/>
      <point x="120" y="710"/>
      <point x="296" y="710" type="curve" smooth="yes"/>
      <point x="472" y="710"/>
      <point x="550" y="572"/>
      <point x="550" y="351" type="curve" smooth="yes"/>
      <point x="550" y="131"/>
      <point x="471" y="-9"/>
      <point x="296" y="-10" type="curve"/>
      <point x="261" y="-48" type="line"/>
      <point x="381" y="-78" type="line" smooth="yes"/>
      <point x="390" y="-80"/>
      <point x="411" y="-83"/>
      <point x="421" y="-83" type="curve" smooth="yes"/>
      <point x="447" y="-83"/>
      <point x="474" y="-66"/>
      <point x="481" y="-24" type="curve"/>
    </contour>
    <contour>
      <point x="426" y="349" type="curve" smooth="yes"/>
      <point x="426" y="499"/>
      <point x="394" y="593"/>
      <point x="294" y="593" type="curve" smooth="yes"/>
      <point x="194" y="593"/>
      <point x="164" y="501"/>
      <point x="164" y="351" type="curve" smooth="yes"/>
      <point x="164" y="201"/>
      <point x="196" y="107"/>
      <point x="296" y="107" type="curve" smooth="yes"/>
      <point x="396" y="107"/>
      <point x="426" y="199"/>
    </contour>
  </outline>
</glyph>
<glyph name="R" format="1">
  <advance width="580"/>
  <unicode hex="0052"/>
  <outline>
    <contour>
      <point x="540" y="526" type="curve" smooth="yes"/>
      <point x="540" y="441"/>
      <point x="495" y="381"/>
      <point x="426" y="339" type="curve"/>
      <point x="527" y="0" type="line"/>
      <point x="404" y="0" type="line"/>
      <point x="319" y="292" type="line"/>
      <point x="289" y="283"/>
      <point x="257" y="276"/>
      <point x="224" y="270" type="curve"/>
      <point x="224" y="385" type="line"/>
      <point x="342" y="404"/>
      <point x="416" y="445"/>
      <point x="416" y="521" type="curve" smooth="yes"/>
      <point x="416" y="563"/>
      <point x="391" y="584"/>
      <point x="313" y="584" type="curve" smooth="yes"/>
      <point x="190" y="584" type="line"/>
      <point x="190" y="0" type="line"/>
      <point x="70" y="0" type="line"/>
      <point x="70" y="700" type="line"/>
      <point x="318" y="700" type="line" smooth="yes"/>
      <point x="457" y="700"/>
      <point x="540" y="647"/>
    </contour>
  </outline>
</glyph>
<glyph name="S" format="1">
  <advance width="540"/>
  <unicode hex="0053"/>
  <outline>
    <contour>
      <point x="501" y="204" type="curve" smooth="yes"/>
      <point x="501" y="60"/>
      <point x="412" y="-10"/>
      <point x="276" y="-10" type="curve" smooth="yes"/>
      <point x="137" y="-10"/>
      <point x="59" y="56"/>
      <point x="29" y="175" type="curve"/>
      <point x="127" y="241" type="line"/>
      <point x="147" y="153"/>
      <point x="194" y="103"/>
      <point x="283" y="103" type="curve" smooth="yes"/>
      <point x="345" y="103"/>
      <point x="377" y="135"/>
      <point x="377" y="198" type="curve" smooth="yes"/>
      <point x="377" y="247"/>
      <point x="348" y="271"/>
      <point x="246" y="307" type="curve" smooth="yes"/>
      <point x="126" y="349"/>
      <point x="44" y="388"/>
      <point x="44" y="522" type="curve" smooth="yes"/>
      <point x="44" y="644"/>
      <point x="133" y="710"/>
      <point x="257" y="710" type="curve" smooth="yes"/>
      <point x="359" y="710"/>
      <point x="443" y="665"/>
      <point x="487" y="613" type="curve"/>
      <point x="451" y="570"/>
      <point x="441" y="530"/>
      <point x="441" y="471" type="curve"/>
      <point x="324" y="471" type="line"/>
      <point x="324" y="510"/>
      <point x="327" y="554"/>
      <point x="345" y="580" type="curve"/>
      <point x="323" y="594"/>
      <point x="293" y="603"/>
      <point x="257" y="603" type="curve" smooth="yes"/>
      <point x="199" y="603"/>
      <point x="164" y="580"/>
      <point x="164" y="528" type="curve" smooth="yes"/>
      <point x="164" y="474"/>
      <point x="201" y="453"/>
      <point x="292" y="420" type="curve" smooth="yes"/>
      <point x="412" y="377"/>
      <point x="501" y="337"/>
    </contour>
  </outline>
</glyph>
<glyph name="T" format="1">
  <advance width="544"/>
  <unicode hex="0054"/>
  <outline>
    <contour>
      <point x="524" y="587" type="line"/>
      <point x="332" y="587" type="line"/>
      <point x="332" y="111" type="line"/>
      <point x="402" y="111" type="line"/>
      <point x="402" y="0" type="line"/>
      <point x="142" y="0" type="line"/>
      <point x="142" y="111" type="line"/>
      <point x="212" y="111" type="line"/>
      <point x="212" y="587" type="line"/>
      <point x="20" y="587" type="line"/>
      <point x="20" y="700" type="line"/>
      <point x="524" y="700" type="line"/>
    </contour>
  </outline>
</glyph>
<glyph name="U" format="1">
  <advance width="614"/>
  <unicode hex="0055"/>
  <outline>
    <contour>
      <point x="575" y="605" type="line"/>
      <point x="539" y="585"/>
      <point x="525" y="569"/>
      <point x="525" y="518" type="curve" smooth="yes"/>
      <point x="525" y="445"/>
      <point x="554" y="328"/>
      <point x="554" y="243" type="curve" smooth="yes"/>
      <point x="554" y="83"/>
      <point x="471" y="-10"/>
      <point x="304" y="-10" type="curve" smooth="yes"/>
      <point x="128" y="-10"/>
      <point x="65" y="88"/>
      <point x="65" y="260" type="curve" smooth="yes"/>
      <point x="65" y="700" type="line"/>
      <point x="185" y="700" type="line"/>
      <point x="185" y="260" type="line" smooth="yes"/>
      <point x="185" y="162"/>
      <point x="211" y="107"/>
      <point x="304" y="107" type="curve" smooth="yes"/>
      <point x="401" y="107"/>
      <point x="432" y="155"/>
      <point x="432" y="241" type="curve" smooth="yes"/>
      <point x="432" y="324"/>
      <point x="403" y="443"/>
      <point x="403" y="517" type="curve" smooth="yes"/>
      <point x="403" y="635"/>
      <point x="433" y="666"/>
      <point x="518" y="710" type="curve"/>
    </contour>
  </outline>
</glyph>
<glyph name="V" format="1">
  <advance width="572"/>
  <unicode hex="0056"/>
  <outline>
    <contour>
      <point x="551" y="599" type="line"/>
      <point x="516" y="599"/>
      <point x="503" y="579"/>
      <point x="487" y="518" type="curve" smooth="yes"/>
      <point x="348" y="0" type="line"/>
      <point x="225" y="0" type="line"/>
      <point x="22" y="700" type="line"/>
      <point x="146" y="700" type="line"/>
      <point x="288" y="186" type="line"/>
      <point x="380" y="549" type="line" smooth="yes"/>
      <point x="414" y="682"/>
      <point x="451" y="705"/>
      <point x="551" y="705" type="curve"/>
    </contour>
  </outline>
</glyph>
<glyph name="W" format="1">
  <advance width="789"/>
  <unicode hex="0057"/>
  <outline>
    <contour>
      <point x="768" y="599" type="line"/>
      <point x="733" y="599"/>
      <point x="716" y="578"/>
      <point x="704" y="518" type="curve" smooth="yes"/>
      <point x="600" y="0" type="line"/>
      <point x="480" y="0" type="line"/>
      <point x="388" y="451" type="line"/>
      <point x="300" y="0" type="line"/>
      <point x="180" y="0" type="line"/>
      <point x="22" y="700" type="line"/>
      <point x="143" y="700" type="line"/>
      <point x="243" y="206" type="line"/>
      <point x="342" y="700" type="line"/>
      <point x="438" y="700" type="line"/>
      <point x="540" y="206" type="line"/>
      <point x="602" y="549" type="line" smooth="yes"/>
      <point x="626" y="682"/>
      <point x="668" y="705"/>
      <point x="768" y="705" type="curve"/>
    </contour>
  </outline>
</glyph>
<glyph name="X" format="1">
  <advance width="572"/>
  <unicode hex="0058"/>
  <outline>
    <contour>
      <point x="541" y="0" type="line"/>
      <point x="406" y="0" type="line"/>
      <point x="279" y="249" type="line"/>
      <point x="149" y="0" type="line"/>
      <point x="16" y="0" type="line"/>
      <point x="218" y="360" type="line"/>
      <point x="37" y="700" type="line"/>
      <point x="173" y="700" type="line"/>
      <point x="288" y="471" type="line"/>
      <point x="341" y="574" type="line" smooth="yes"/>
      <point x="396" y="680"/>
      <point x="426" y="705"/>
      <point x="524" y="705" type="curve"/>
      <point x="524" y="593" type="line"/>
      <point x="485" y="593"/>
      <point x="464" y="572"/>
      <point x="432" y="513" type="curve" smooth="yes"/>
      <point x="349" y="362" type="line"/>
    </contour>
  </outline>
</glyph>
<glyph name="Y" format="1">
  <advance width="610"/>
  <unicode hex="0059"/>
  <outline>
    <contour>
      <point x="580" y="596" type="line"/>
      <point x="546" y="596"/>
      <point x="518" y="573"/>
      <point x="485" y="517" type="curve" smooth="yes"/>
      <point x="367" y="319" type="line"/>
      <point x="367" y="109" type="line"/>
      <point x="497" y="109" type="line"/>
      <point x="497" y="0" type="line"/>
      <point x="117" y="0" type="line"/>
      <point x="117" y="109" type="line"/>
      <point x="247" y="109" type="line"/>
      <point x="247" y="313" type="line"/>
      <point x="15" y="700" type="line"/>
      <point x="155" y="700" type="line"/>
      <point x="307" y="427" type="line"/>
      <point x="405" y="591" type="line" smooth="yes"/>
      <point x="452" y="669"/>
      <point x="485" y="705"/>
      <point x="580" y="705" type="curve"/>
    </contour>
  </outline>
</glyph>
<glyph name="Z" format="1">
  <advance width="559"/>
  <unicode hex="005A"/>
  <outline>
    <contour>
      <point x="535" y="700" type="line"/>
      <point x="217" y="107" type="line"/>
      <point x="511" y="107" type="line"/>
      <point x="511" y="0" type="line"/>
      <point x="31" y="0" type="line"/>
      <point x="352" y="596" type="line"/>
      <point x="182" y="596" type="line"/>
      <point x="190" y="562"/>
      <point x="193" y="513"/>
      <point x="193" y="458" type="curve"/>
      <point x="73" y="458" type="line"/>
      <point x="73" y="561"/>
      <point x="62" y="635"/>
      <point x="38" y="700" type="curve"/>
    </contour>
  </outline>
</glyph>
<glyph name="bracketleft" format="1">
  <advance width="380"/>
  <unicode hex="005B"/>
  <outline>
    <contour>
      <point x="317" y="0" type="line"/>
      <point x="80" y="0" type="line"/>
      <point x="80" y="700" type="line"/>
      <point x="317" y="700" type="line"/>
      <point x="317" y="593" type="line"/>
      <point x="195" y="593" type="line"/>
      <point x="195" y="107" type="line"/>
      <point x="317" y="107" type="line"/>
    </contour>
  </outline>
</glyph>
<glyph name="backslash" format="1">
  <advance width="400"/>
  <unicode hex="005C"/>
  <outline>
    <contour>
      <point x="363" y="0" type="line"/>
      <point x="247" y="0" type="line"/>
      <point x="37" y="700" type="line"/>
      <point x="153" y="700" type="line"/>
    </contour>
  </outline>
</glyph>
<glyph name="bracketright" format="1">
  <advance width="380"/>
  <unicode hex="005D"/>
  <outline>
    <contour>
      <point x="300" y="0" type="line"/>
      <point x="63" y="0" type="line"/>
      <point x="63" y="107" type="line"/>
      <point x="185" y="107" type="line"/>
      <point x="185" y="593" type="line"/>
      <point x="63" y="593" type="line"/>
      <point x="63" y="700" type="line"/>
      <point x="300" y="700" type="line"/>
    </contour>
  </outline>
</glyph>
<glyph name="asciicircum" format="1">
  <advance width="540"/>
  <unicode hex="005E"/>
  <outline>
    <contour>
      <point x="500" y="445" type="curve"/>
      <point x="442" y="353" type="line"/>
      <point x="356" y="401"/>
      <point x="308" y="451"/>
      <point x="270" y="525" type="curve"/>
      <point x="232" y="451"/>
      <point x="183" y="401"/>
      <point x="98" y="353" type="curve"/>
      <point x="40" y="445" type="line"/>
      <point x="147" y="511"/>
      <point x="201" y="593"/>
      <point x="221" y="700" type="curve"/>
      <point x="318" y="700" type="line"/>
      <point x="338" y="593"/>
      <point x="392" y="511"/>
    </contour>
  </outline>
</glyph>
<glyph name="grave" format="1">
  <advance width="500"/>
  <unicode hex="0060"/>
  <outline>
    <contour>
      <point x="343" y="813" type="curve"/>
      <point x="315" y="730" type="line"/>
      <point x="214" y="742"/>
      <point x="156" y="776"/>
      <point x="126" y="852" type="curve"/>
      <point x="226" y="893" type="line"/>
      <point x="244" y="851"/>
      <point x="276" y="826"/>
    </contour>
  </outline>
</glyph>
<glyph name="a" format="1">
  <advance width="604"/>
  <unicode hex="0061"/>
  <outline>
    <contour>
      <point x="567" y="0" type="line"/>
      <point x="451" y="0" type="line"/>
      <point x="412" y="153" type="line"/>
      <point x="301" y="69" type="line"/>
      <point x="190" y="154" type="line"/>
      <point x="153" y="0" type="line"/>
      <point x="37" y="0" type="line"/>
      <point x="187" y="589" type="line"/>
      <point x="82" y="589" type="line"/>
      <point x="82" y="700" type="line"/>
      <point x="522" y="700" type="line"/>
      <point x="522" y="589" type="line"/>
      <point x="415" y="589" type="line"/>
    </contour>
    <contour>
      <point x="384" y="261" type="line"/>
      <point x="298" y="597" type="line"/>
      <point x="217" y="265" type="line"/>
      <point x="303" y="199" type="line"/>
    </contour>
  </outline>
</glyph>
<glyph name="b" format="1">
  <advance width="590"/>
  <unicode hex="0062"/>
  <outline>
    <contour>
      <point x="550" y="218" type="curve" smooth="yes"/>
      <point x="550" y="76"/>
      <point x="469" y="0"/>
      <point x="313" y="0" type="curve" smooth="yes"/>
      <point x="70" y="0" type="line"/>
      <point x="70" y="700" type="line"/>
      <point x="303" y="700" type="line" smooth="yes"/>
      <point x="433" y="700"/>
      <point x="510" y="648"/>
      <point x="510" y="528" type="curve" smooth="yes"/>
      <point x="510" y="455"/>
      <point x="482" y="418"/>
      <point x="434" y="390" type="curve"/>
      <point x="501" y="365"/>
      <point x="550" y="325"/>
    </contour>
    <contour>
      <point x="432" y="218" type="curve" smooth="yes"/>
      <point x="432" y="279"/>
      <point x="403" y="317"/>
      <point x="331" y="317" type="curve" smooth="yes"/>
      <point x="224" y="317" type="line"/>
      <point x="224" y="420" type="line"/>
      <point x="297" y="420" type="line" smooth="yes"/>
      <point x="359" y="420"/>
      <point x="392" y="454"/>
      <point x="392" y="510" type="curve" smooth="yes"/>
      <point x="392" y="553"/>
      <point x="368" y="586"/>
      <point x="303" y="586" type="curve" smooth="yes"/>
      <point x="188" y="586" type="line"/>
      <point x="188" y="114" type="line"/>
      <point x="323" y="114" type="line" smooth="yes"/>
      <point x="401" y="114"/>
      <point x="432" y="158"/>
    </contour>
  </outline>
</glyph>
<glyph name="c" format="1">
  <advance width="470"/>
  <unicode hex="0063"/>
  <outline>
    <contour>
      <point x="424" y="651" type="curve"/>
      <point x="395" y="615"/>
      <point x="388" y="570"/>
      <point x="388" y="529" type="curve"/>
      <point x="284" y="529" type="line"/>
      <point x="284" y="554"/>
      <point x="290" y="579"/>
      <point x="301" y="598" type="curve"/>
      <point x="287" y="608"/>
      <point x="275" y="611"/>
      <point x="244" y="611" type="curve" smooth="yes"/>
      <point x="190" y="611"/>
      <point x="150" y="562"/>
      <point x="150" y="462" type="curve" smooth="yes"/>
      <point x="150" y="367"/>
      <point x="183" y="317"/>
      <point x="246" y="317" type="curve" smooth="yes"/>
      <point x="298" y="317"/>
      <point x="315" y="344"/>
      <point x="315" y="378" type="curve" smooth="yes"/>
      <point x="315" y="391"/>
      <point x="312" y="406"/>
      <point x="302" y="422" type="curve"/>
      <point x="411" y="412" type="line"/>
      <point x="419" y="394"/>
      <point x="422" y="380"/>
      <point x="422" y="360" type="curve" smooth="yes"/>
      <point x="422" y="285"/>
      <point x="357" y="212"/>
      <point x="239" y="212" type="curve" smooth="yes"/>
      <point x="110" y="212"/>
      <point x="40" y="312"/>
      <point x="40" y="460" type="curve" smooth="yes"/>
      <point x="40" y="617"/>
      <point x="120" y="710"/>
      <point x="246" y="710" type="curve" smooth="yes"/>
      <point x="318" y="710"/>
      <point x="388" y="684"/>
    </contour>
    <contour>
      <point x="312" y="0" type="line"/>
      <point x="172" y="0" type="line"/>
      <point x="172" y="134" type="line"/>
      <point x="312" y="134" type="line"/>
    </contour>
  </outline>
</glyph>
<glyph name="d" format="1">
  <advance width="573"/>
  <unicode hex="0064"/>
  <outline>
    <contour>
      <point x="533" y="455" type="curve" smooth="yes"/>
      <point x="533" y="238"/>
      <point x="382" y="0"/>
      <point x="125" y="0" type="curve" smooth="yes"/>
      <point x="70" y="0" type="line"/>
      <point x="70" y="700" type="line"/>
      <point x="271" y="700" type="line" smooth="yes"/>
      <point x="458" y="700"/>
      <point x="533" y="628"/>
    </contour>
    <contour>
      <point x="409" y="453" type="curve" smooth="yes"/>
      <point x="409" y="553"/>
      <point x="369" y="584"/>
      <point x="261" y="584" type="curve" smooth="yes"/>
      <point x="190" y="584" type="line"/>
      <point x="190" y="126" type="line"/>
      <point x="260" y="144"/>
      <point x="305" y="175"/>
      <point x="350" y="244" type="curve" smooth="yes"/>
      <point x="391" y="307"/>
      <point x="409" y="370"/>
    </contour>
  </outline>
</glyph>
<glyph name="e" format="1">
  <advance width="555"/>
  <unicode hex="0065"/>
  <outline>
    <contour>
      <point x="520" y="626" type="curve"/>
      <point x="488" y="584"/>
      <point x="475" y="550"/>
      <point x="475" y="490" type="curve"/>
      <point x="358" y="490" type="line"/>
      <point x="358" y="521"/>
      <point x="364" y="551"/>
      <point x="379" y="580" type="curve"/>
      <point x="363" y="589"/>
      <point x="340" y="594"/>
      <point x="296" y="594" type="curve" smooth="yes"/>
      <point x="214" y="594"/>
      <point x="175" y="534"/>
      <point x="165" y="415" type="curve"/>
      <point x="318" y="415" type="line"/>
      <point x="318" y="307" type="line"/>
      <point x="164" y="307" type="line"/>
      <point x="171" y="179"/>
      <point x="208" y="106"/>
      <point x="295" y="106" type="curve" smooth="yes"/>
      <point x="365" y="106"/>
      <point x="402" y="142"/>
      <point x="402" y="203" type="curve" smooth="yes"/>
      <point x="402" y="232"/>
      <point x="396" y="253"/>
      <point x="386" y="279" type="curve"/>
      <point x="505" y="266" type="line"/>
      <point x="513" y="239"/>
      <point x="516" y="223"/>
      <point x="516" y="190" type="curve" smooth="yes"/>
      <point x="516" y="78"/>
      <point x="439" y="-10"/>
      <point x="293" y="-10" type="curve" smooth="yes"/>
      <point x="117" y="-10"/>
      <point x="40" y="129"/>
      <point x="40" y="350" type="curve" smooth="yes"/>
      <point x="40" y="578"/>
      <point x="121" y="710"/>
      <point x="298" y="710" type="curve" smooth="yes"/>
      <point x="398" y="710"/>
      <point x="467" y="677"/>
    </contour>
  </outline>
</glyph>
<glyph name="f" format="1">
  <advance width="535"/>
  <unicode hex="0066"/>
  <outline>
    <contour>
      <point x="499" y="494" type="line"/>
      <point x="384" y="494" type="line"/>
      <point x="384" y="591" type="line"/>
      <point x="190" y="591" type="line"/>
      <point x="190" y="363" type="line"/>
      <point x="344" y="437" type="line"/>
      <point x="344" y="311" type="line"/>
      <point x="190" y="234" type="line"/>
      <point x="190" y="0" type="line"/>
      <point x="70" y="0" type="line"/>
      <point x="70" y="700" type="line"/>
      <point x="499" y="700" type="line"/>
    </contour>
  </outline>
</glyph>
<glyph name="g" format="1">
  <advance width="582"/>
  <unicode hex="0067"/>
  <outline>
    <contour>
      <point x="531" y="612" type="curve"/>
      <point x="494" y="572"/>
      <point x="486" y="525"/>
      <point x="486" y="466" type="curve"/>
      <point x="369" y="466" type="line"/>
      <point x="369" y="505"/>
      <point x="372" y="542"/>
      <point x="389" y="572" type="curve"/>
      <point x="371" y="585"/>
      <point x="344" y="593"/>
      <point x="295" y="593" type="curve" smooth="yes"/>
      <point x="195" y="593"/>
      <point x="164" y="502"/>
      <point x="164" y="352" type="curve" smooth="yes"/>
      <point x="164" y="202"/>
      <point x="194" y="107"/>
      <point x="306" y="107" type="curve" smooth="yes"/>
      <point x="362" y="107"/>
      <point x="393" y="115"/>
      <point x="421" y="127" type="curve"/>
      <point x="421" y="252" type="line"/>
      <point x="310" y="210" type="line"/>
      <point x="310" y="323" type="line"/>
      <point x="530" y="399" type="line"/>
      <point x="530" y="38" type="line"/>
      <point x="463" y="10"/>
      <point x="392" y="-10"/>
      <point x="302" y="-10" type="curve" smooth="yes"/>
      <point x="117" y="-10"/>
      <point x="40" y="129"/>
      <point x="40" y="350" type="curve" smooth="yes"/>
      <point x="40" y="571"/>
      <point x="120" y="710"/>
      <point x="296" y="710" type="curve" smooth="yes"/>
      <point x="421" y="710"/>
      <point x="490" y="665"/>
    </contour>
  </outline>
</glyph>
<glyph name="h" format="1">
  <advance width="610"/>
  <unicode hex="0068"/>
  <outline>
    <contour>
      <point x="540" y="0" type="line"/>
      <point x="420" y="0" type="line"/>
      <point x="420" y="310" type="line"/>
      <point x="302" y="220" type="line"/>
      <point x="190" y="305" type="line"/>
      <point x="190" y="0" type="line"/>
      <point x="70" y="0" type="line"/>
      <point x="70" y="700" type="line"/>
      <point x="190" y="700" type="line"/>
      <point x="190" y="440" type="line"/>
      <point x="303" y="353" type="line"/>
      <point x="420" y="444" type="line"/>
      <point x="420" y="700" type="line"/>
      <point x="540" y="700" type="line"/>
    </contour>
  </outline>
</glyph>
<glyph name="i" format="1">
  <advance width="364"/>
  <unicode hex="0069"/>
  <outline>
    <contour>
      <point x="312" y="0" type="line"/>
      <point x="52" y="0" type="line"/>
      <point x="52" y="108" type="line"/>
      <point x="124" y="108" type="line"/>
      <point x="124" y="592" type="line"/>
      <point x="52" y="592" type="line"/>
      <point x="52" y="700" type="line"/>
      <point x="312" y="700" type="line"/>
      <point x="312" y="592" type="line"/>
      <point x="240" y="592" type="line"/>
      <point x="240" y="108" type="line"/>
      <point x="312" y="108" type="line"/>
    </contour>
  </outline>
</glyph>
<glyph name="j" format="1">
  <advance width="510"/>
  <unicode hex="006A"/>
  <outline>
    <contour>
      <point x="445" y="250" type="line" smooth="yes"/>
      <point x="445" y="87"/>
      <point x="398" y="-10"/>
      <point x="237" y="-10" type="curve" smooth="yes"/>
      <point x="98" y="-10"/>
      <point x="29" y="68"/>
      <point x="29" y="167" type="curve" smooth="yes"/>
      <point x="29" y="211"/>
      <point x="32" y="232"/>
      <point x="37" y="249" type="curve"/>
      <point x="157" y="263" type="line"/>
      <point x="152" y="243"/>
      <point x="150" y="217"/>
      <point x="150" y="196" type="curve" smooth="yes"/>
      <point x="150" y="129"/>
      <point x="186" y="107"/>
      <point x="239" y="107" type="curve" smooth="yes"/>
      <point x="297" y="107"/>
      <point x="325" y="143"/>
      <point x="325" y="248" type="curve" smooth="yes"/>
      <point x="325" y="586" type="line"/>
      <point x="180" y="586" type="line"/>
      <point x="180" y="700" type="line"/>
      <point x="445" y="700" type="line"/>
    </contour>
  </outline>
</glyph>
<glyph name="k" format="1">
  <advance width="600"/>
  <unicode hex="006B"/>
  <outline>
    <contour>
      <point x="560" y="0" type="line"/>
      <point x="425" y="0" type="line"/>
      <point x="268" y="323" type="line"/>
      <point x="220" y="230"/>
      <point x="187" y="118"/>
      <point x="178" y="0" type="curve"/>
      <point x="70" y="0" type="line"/>
      <point x="70" y="700" type="line"/>
      <point x="185" y="700" type="line"/>
      <point x="185" y="348" type="line"/>
      <point x="238" y="491"/>
      <point x="350" y="641"/>
      <point x="504" y="710" type="curve"/>
      <point x="558" y="609" type="line"/>
      <point x="481" y="572"/>
      <point x="407" y="513"/>
      <point x="350" y="442" type="curve"/>
    </contour>
  </outline>
</glyph>
<glyph name="m" format="1">
  <advance width="760"/>
  <unicode hex="006D"/>
  <outline>
    <contour>
      <point x="690" y="0" type="line"/>
      <point x="573" y="0" type="line"/>
      <point x="573" y="512" type="line"/>
      <point x="438" y="340" type="line"/>
      <point x="438" y="130" type="line"/>
      <point x="322" y="130" type="line"/>
      <point x="322" y="340" type="line"/>
      <point x="187" y="512" type="line"/>
      <point x="187" y="0" type="line"/>
      <point x="70" y="0" type="line"/>
      <point x="70" y="700" type="line"/>
      <point x="179" y="700" type="line"/>
      <point x="380" y="447" type="line"/>
      <point x="581" y="700" type="line"/>
      <point x="690" y="700" type="line"/>
    </contour>
  </outline>
</glyph>
<glyph name="n" format="1">
  <advance width="610"/>
  <unicode hex="006E"/>
  <outline>
    <contour>
      <point x="540" y="0" type="line"/>
      <point x="423" y="0" type="line"/>
      <point x="423" y="181" type="line"/>
      <point x="187" y="498" type="line"/>
      <point x="187" y="0" type="line"/>
      <point x="70" y="0" type="line"/>
      <point x="70" y="700" type="line"/>
      <point x="179" y="700" type="line"/>
      <point x="423" y="367" type="line"/>
      <point x="423" y="700" type="line"/>
      <point x="540" y="700" type="line"/>
    </contour>
  </outline>
</glyph>
<glyph name="o" format="1">
  <advance width="490"/>
  <unicode hex="006F"/>
  <outline>
    <contour>
      <point x="454" y="462" type="curve" smooth="yes"/>
      <point x="454" y="315"/>
      <point x="382" y="212"/>
      <point x="246" y="212" type="curve" smooth="yes"/>
      <point x="112" y="212"/>
      <point x="40" y="314"/>
      <point x="40" y="460" type="curve" smooth="yes"/>
      <point x="40" y="607"/>
      <point x="112" y="710"/>
      <point x="248" y="710" type="curve" smooth="yes"/>
      <point x="382" y="710"/>
      <point x="454" y="608"/>
    </contour>
    <contour>
      <point x="317" y="0" type="line"/>
      <point x="177" y="0" type="line"/>
      <point x="177" y="134" type="line"/>
      <point x="317" y="134" type="line"/>
    </contour>
    <contour>
      <point x="343" y="460" type="curve" smooth="yes"/>
      <point x="343" y="549"/>
      <point x="314" y="605"/>
      <point x="246" y="605" type="curve" smooth="yes"/>
      <point x="180" y="605"/>
      <point x="151" y="550"/>
      <point x="151" y="462" type="curve" smooth="yes"/>
      <point x="151" y="373"/>
      <point x="180" y="317"/>
      <point x="248" y="317" type="curve" smooth="yes"/>
      <point x="314" y="317"/>
      <point x="343" y="372"/>
    </contour>
  </outline>
</glyph>
<glyph name="q" format="1">
  <advance width="590"/>
  <unicode hex="0071"/>
  <outline>
    <contour>
      <point x="573" y="83" type="line"/>
      <point x="518" y="-10" type="line"/>
      <point x="441" y="40" type="line"/>
      <point x="402" y="8"/>
      <point x="353" y="-10"/>
      <point x="294" y="-10" type="curve" smooth="yes"/>
      <point x="118" y="-10"/>
      <point x="40" y="128"/>
      <point x="40" y="349" type="curve" smooth="yes"/>
      <point x="40" y="570"/>
      <point x="120" y="710"/>
      <point x="296" y="710" type="curve" smooth="yes"/>
      <point x="472" y="710"/>
      <point x="550" y="572"/>
      <point x="550" y="351" type="curve" smooth="yes"/>
      <point x="550" y="264"/>
      <point x="536" y="187"/>
      <point x="507" y="127" type="curve"/>
    </contour>
    <contour>
      <point x="427" y="349" type="curve" smooth="yes"/>
      <point x="427" y="500"/>
      <point x="394" y="594"/>
      <point x="294" y="594" type="curve" smooth="yes"/>
      <point x="194" y="594"/>
      <point x="163" y="502"/>
      <point x="163" y="351" type="curve" smooth="yes"/>
      <point x="163" y="200"/>
      <point x="196" y="102"/>
      <point x="296" y="102" type="curve" smooth="yes"/>
      <point x="311" y="102"/>
      <point x="325" y="104"/>
      <point x="337" y="107" type="curve"/>
      <point x="278" y="152"/>
      <point x="261" y="193"/>
      <point x="261" y="252" type="curve"/>
      <point x="359" y="289" type="line"/>
      <point x="359" y="243"/>
      <point x="371" y="222"/>
      <point x="411" y="192" type="curve"/>
      <point x="423" y="232"/>
      <point x="427" y="285"/>
    </contour>
  </outline>
</glyph>
<glyph name="r" format="1">
  <advance width="590"/>
  <unicode hex="0072"/>
  <outline>
    <contour>
      <point x="547" y="0" type="line"/>
      <point x="422" y="0" type="line"/>
      <point x="396" y="89" type="line" smooth="yes"/>
      <point x="357" y="223"/>
      <point x="319" y="272"/>
      <point x="224" y="285" type="curve"/>
      <point x="224" y="385" type="line"/>
      <point x="342" y="404"/>
      <point x="416" y="445"/>
      <point x="416" y="521" type="curve" smooth="yes"/>
      <point x="416" y="563"/>
      <point x="391" y="584"/>
      <point x="313" y="584" type="curve" smooth="yes"/>
      <point x="190" y="584" type="line"/>
      <point x="190" y="0" type="line"/>
      <point x="70" y="0" type="line"/>
      <point x="70" y="700" type="line"/>
      <point x="318" y="700" type="line" smooth="yes"/>
      <point x="457" y="700"/>
      <point x="540" y="647"/>
      <point x="540" y="526" type="curve" smooth="yes"/>
      <point x="540" y="426"/>
      <point x="472" y="362"/>
      <point x="376" y="327" type="curve"/>
      <point x="451" y="293"/>
      <point x="483" y="224"/>
      <point x="515" y="112" type="curve" smooth="yes"/>
    </contour>
  </outline>
</glyph>
<glyph name="s" format="1">
  <advance width="540"/>
  <unicode hex="0073"/>
  <outline>
    <contour>
      <point x="501" y="199" type="curve" smooth="yes"/>
      <point x="501" y="61"/>
      <point x="413" y="-10"/>
      <point x="266" y="-10" type="curve" smooth="yes"/>
      <point x="156" y="-10"/>
      <point x="70" y="35"/>
      <point x="26" y="87" type="curve"/>
      <point x="62" y="130"/>
      <point x="72" y="170"/>
      <point x="72" y="229" type="curve"/>
      <point x="189" y="229" type="line"/>
      <point x="189" y="190"/>
      <point x="186" y="150"/>
      <point x="170" y="124" type="curve"/>
      <point x="192" y="110"/>
      <point x="228" y="101"/>
      <point x="273" y="101" type="curve" smooth="yes"/>
      <point x="339" y="101"/>
      <point x="377" y="128"/>
      <point x="377" y="193" type="curve" smooth="yes"/>
      <point x="377" y="238"/>
      <point x="349" y="264"/>
      <point x="246" y="300" type="curve" smooth="yes"/>
      <point x="118" y="345"/>
      <point x="44" y="386"/>
      <point x="44" y="517" type="curve" smooth="yes"/>
      <point x="44" y="644"/>
      <point x="133" y="710"/>
      <point x="257" y="710" type="curve" smooth="yes"/>
      <point x="359" y="710"/>
      <point x="443" y="665"/>
      <point x="487" y="613" type="curve"/>
      <point x="451" y="570"/>
      <point x="441" y="530"/>
      <point x="441" y="471" type="curve"/>
      <point x="324" y="471" type="line"/>
      <point x="324" y="510"/>
      <point x="327" y="554"/>
      <point x="345" y="580" type="curve"/>
      <point x="323" y="594"/>
      <point x="293" y="603"/>
      <point x="257" y="603" type="curve" smooth="yes"/>
      <point x="199" y="603"/>
      <point x="164" y="577"/>
      <point x="164" y="523" type="curve" smooth="yes"/>
      <point x="164" y="463"/>
      <point x="199" y="447"/>
      <point x="292" y="413" type="curve" smooth="yes"/>
      <point x="419" y="367"/>
      <point x="501" y="323"/>
    </contour>
  </outline>
</glyph>
<glyph name="t" format="1">
  <advance width="622"/>
  <unicode hex="0074"/>
  <outline>
    <contour>
      <point x="602" y="700" type="line"/>
      <point x="578" y="635"/>
      <point x="567" y="561"/>
      <point x="567" y="458" type="curve"/>
      <point x="456" y="458" type="line"/>
      <point x="456" y="520"/>
      <point x="460" y="567"/>
      <point x="469" y="603" type="curve"/>
      <point x="371" y="603" type="line"/>
      <point x="371" y="111" type="line"/>
      <point x="451" y="111" type="line"/>
      <point x="451" y="0" type="line"/>
      <point x="171" y="0" type="line"/>
      <point x="171" y="111" type="line"/>
      <point x="251" y="111" type="line"/>
      <point x="251" y="603" type="line"/>
      <point x="153" y="603" type="line"/>
      <point x="162" y="567"/>
      <point x="166" y="520"/>
      <point x="166" y="458" type="curve"/>
      <point x="55" y="458" type="line"/>
      <point x="55" y="561"/>
      <point x="44" y="635"/>
      <point x="20" y="700" type="curve"/>
    </contour>
  </outline>
</glyph>
<glyph name="u" format="1">
  <advance width="599"/>
  <unicode hex="0075"/>
  <outline>
    <contour>
      <point x="529" y="0" type="line"/>
      <point x="346" y="0" type="line" smooth="yes"/>
      <point x="139" y="0"/>
      <point x="45" y="81"/>
      <point x="45" y="293" type="curve" smooth="yes"/>
      <point x="45" y="467"/>
      <point x="104" y="596"/>
      <point x="183" y="710" type="curve"/>
      <point x="282" y="650" type="line"/>
      <point x="217" y="549"/>
      <point x="169" y="435"/>
      <point x="169" y="296" type="curve" smooth="yes"/>
      <point x="169" y="165"/>
      <point x="222" y="117"/>
      <point x="350" y="117" type="curve" smooth="yes"/>
      <point x="409" y="117" type="line"/>
      <point x="409" y="700" type="line"/>
      <point x="529" y="700" type="line"/>
    </contour>
  </outline>
</glyph>
<glyph name="v" format="1">
  <advance width="566"/>
  <unicode hex="0076"/>
  <outline>
    <contour>
      <point x="522" y="522" type="curve" smooth="yes"/>
      <point x="522" y="424"/>
      <point x="490" y="345"/>
      <point x="447" y="248" type="curve" smooth="yes"/>
      <point x="336" y="0" type="line"/>
      <point x="214" y="0" type="line"/>
      <point x="22" y="700" type="line"/>
      <point x="146" y="700" type="line"/>
      <point x="288" y="146" type="line"/>
      <point x="348" y="296" type="line" smooth="yes"/>
      <point x="383" y="384"/>
      <point x="404" y="446"/>
      <point x="404" y="509" type="curve" smooth="yes"/>
      <point x="404" y="574"/>
      <point x="385" y="605"/>
      <point x="350" y="634" type="curve"/>
      <point x="437" y="710" type="line"/>
      <point x="485" y="678"/>
      <point x="522" y="614"/>
    </contour>
  </outline>
</glyph>
<glyph name="w" format="1">
  <advance width="800"/>
  <unicode hex="0077"/>
  <outline>
    <contour>
      <point x="762" y="497" type="curve" smooth="yes"/>
      <point x="762" y="433"/>
      <point x="748" y="349"/>
      <point x="709" y="246" type="curve" smooth="yes"/>
      <point x="616" y="0" type="line"/>
      <point x="494" y="0" type="line"/>
      <point x="402" y="459" type="line"/>
      <point x="299" y="0" type="line"/>
      <point x="169" y="0" type="line"/>
      <point x="22" y="700" type="line"/>
      <point x="140" y="700" type="line"/>
      <point x="240" y="188" type="line"/>
      <point x="352" y="700" type="line"/>
      <point x="455" y="700" type="line"/>
      <point x="569" y="181" type="line"/>
      <point x="603" y="275" type="line" smooth="yes"/>
      <point x="629" y="346"/>
      <point x="647" y="424"/>
      <point x="647" y="492" type="curve" smooth="yes"/>
      <point x="647" y="567"/>
      <point x="616" y="605"/>
      <point x="581" y="634" type="curve"/>
      <point x="663" y="710" type="line"/>
      <point x="715" y="671"/>
      <point x="762" y="616"/>
    </contour>
  </outline>
</glyph>
<glyph name="x" format="1">
  <advance width="583"/>
  <unicode hex="0078"/>
  <outline>
    <contour>
      <point x="561" y="0" type="line"/>
      <point x="428" y="0" type="line"/>
      <point x="273" y="273" type="line"/>
      <point x="211" y="224"/>
      <point x="172" y="152"/>
      <point x="161" y="94" type="curve"/>
      <point x="274" y="94" type="line"/>
      <point x="274" y="0" type="line"/>
      <point x="21" y="0" type="line"/>
      <point x="53" y="185"/>
      <point x="115" y="287"/>
      <point x="220" y="364" type="curve"/>
      <point x="27" y="700" type="line"/>
      <point x="161" y="700" type="line"/>
      <point x="311" y="434" type="line"/>
      <point x="369" y="482"/>
      <point x="406" y="551"/>
      <point x="416" y="606" type="curve"/>
      <point x="302" y="606" type="line"/>
      <point x="302" y="700" type="line"/>
      <point x="555" y="700" type="line"/>
      <point x="524" y="520"/>
      <point x="466" y="418"/>
      <point x="365" y="342" type="curve"/>
    </contour>
  </outline>
</glyph>
<glyph name="y" format="1">
  <advance width="576"/>
  <unicode hex="0079"/>
  <outline>
    <contour>
      <point x="533" y="626" type="line"/>
      <point x="502" y="611"/>
      <point x="494" y="599"/>
      <point x="494" y="570" type="curve" smooth="yes"/>
      <point x="494" y="526"/>
      <point x="517" y="467"/>
      <point x="517" y="422" type="curve" smooth="yes"/>
      <point x="517" y="317"/>
      <point x="457" y="243"/>
      <point x="349" y="222" type="curve"/>
      <point x="349" y="106" type="line"/>
      <point x="459" y="106" type="line"/>
      <point x="459" y="0" type="line"/>
      <point x="119" y="0" type="line"/>
      <point x="119" y="106" type="line"/>
      <point x="229" y="106" type="line"/>
      <point x="229" y="221" type="line"/>
      <point x="114" y="240"/>
      <point x="65" y="317"/>
      <point x="65" y="434" type="curve" smooth="yes"/>
      <point x="65" y="700" type="line"/>
      <point x="178" y="700" type="line"/>
      <point x="178" y="434" type="line" smooth="yes"/>
      <point x="178" y="355"/>
      <point x="221" y="316"/>
      <point x="287" y="316" type="curve" smooth="yes"/>
      <point x="364" y="316"/>
      <point x="402" y="360"/>
      <point x="402" y="422" type="curve" smooth="yes"/>
      <point x="402" y="468"/>
      <point x="380" y="521"/>
      <point x="380" y="569" type="curve" smooth="yes"/>
      <point x="380" y="654"/>
      <point x="404" y="681"/>
      <point x="481" y="710" type="curve"/>
    </contour>
  </outline>
</glyph>
<glyph name="z" format="1">
  <advance width="557"/>
  <unicode hex="007A"/>
  <outline>
    <contour>
      <point x="525" y="700" type="line"/>
      <point x="368" y="416" type="line"/>
      <point x="469" y="416" type="line"/>
      <point x="469" y="313" type="line"/>
      <point x="312" y="313" type="line"/>
      <point x="201" y="107" type="line"/>
      <point x="501" y="107" type="line"/>
      <point x="501" y="0" type="line"/>
      <point x="21" y="0" type="line"/>
      <point x="194" y="313" type="line"/>
      <point x="97" y="313" type="line"/>
      <point x="97" y="416" type="line"/>
      <point x="250" y="416" type="line"/>
      <point x="346" y="593" type="line"/>
      <point x="66" y="593" type="line"/>
      <point x="66" y="700" type="line"/>
    </contour>
  </outline>
</glyph>
<glyph name="braceleft" format="1">
  <advance width="375"/>
  <unicode hex="007B"/>
  <outline>
    <contour>
      <point x="330" y="-5" type="line"/>
      <point x="167" y="-1"/>
      <point x="97" y="39"/>
      <point x="97" y="130" type="curve" smooth="yes"/>
      <point x="97" y="154"/>
      <point x="124" y="222"/>
      <point x="124" y="250" type="curve" smooth="yes"/>
      <point x="124" y="290"/>
      <point x="108" y="300"/>
      <point x="40" y="304" type="curve"/>
      <point x="40" y="396" type="line"/>
      <point x="108" y="400"/>
      <point x="124" y="410"/>
      <point x="124" y="450" type="curve" smooth="yes"/>
      <point x="124" y="478"/>
      <point x="97" y="546"/>
      <point x="97" y="570" type="curve" smooth="yes"/>
      <point x="97" y="661"/>
      <point x="167" y="701"/>
      <point x="330" y="705" type="curve"/>
      <point x="330" y="604" type="line"/>
      <point x="248" y="599"/>
      <point x="221" y="583"/>
      <point x="221" y="550" type="curve" smooth="yes"/>
      <point x="221" y="527"/>
      <point x="244" y="476"/>
      <point x="244" y="438" type="curve" smooth="yes"/>
      <point x="244" y="393"/>
      <point x="216" y="369"/>
      <point x="167" y="350" type="curve"/>
      <point x="216" y="331"/>
      <point x="244" y="307"/>
      <point x="244" y="262" type="curve" smooth="yes"/>
      <point x="244" y="225"/>
      <point x="221" y="173"/>
      <point x="221" y="150" type="curve" smooth="yes"/>
      <point x="221" y="117"/>
      <point x="248" y="101"/>
      <point x="330" y="96" type="curve"/>
    </contour>
  </outline>
</glyph>
<glyph name="bar" format="1">
  <advance width="275"/>
  <unicode hex="007C"/>
  <outline>
    <contour>
      <point x="193" y="-120" type="line"/>
      <point x="82" y="-120" type="line"/>
      <point x="82" y="760" type="line"/>
      <point x="193" y="760" type="line"/>
    </contour>
  </outline>
</glyph>
<glyph name="braceright" format="1">
  <advance width="375"/>
  <unicode hex="007D"/>
  <outline>
    <contour>
      <point x="335" y="304" type="line"/>
      <point x="267" y="300"/>
      <point x="251" y="290"/>
      <point x="251" y="250" type="curve" smooth="yes"/>
      <point x="251" y="222"/>
      <point x="278" y="154"/>
      <point x="278" y="130" type="curve" smooth="yes"/>
      <point x="278" y="39"/>
      <point x="208" y="-1"/>
      <point x="45" y="-5" type="curve"/>
      <point x="45" y="96" type="line"/>
      <point x="127" y="101"/>
      <point x="154" y="117"/>
      <point x="154" y="150" type="curve" smooth="yes"/>
      <point x="154" y="173"/>
      <point x="131" y="224"/>
      <point x="131" y="262" type="curve" smooth="yes"/>
      <point x="131" y="307"/>
      <point x="159" y="331"/>
      <point x="208" y="350" type="curve"/>
      <point x="159" y="369"/>
      <point x="131" y="393"/>
      <point x="131" y="438" type="curve" smooth="yes"/>
      <point x="131" y="475"/>
      <point x="154" y="527"/>
      <point x="154" y="550" type="curve" smooth="yes"/>
      <point x="154" y="583"/>
      <point x="127" y="599"/>
      <point x="45" y="604" type="curve"/>
      <point x="45" y="705" type="line"/>
      <point x="208" y="701"/>
      <point x="278" y="661"/>
      <point x="278" y="570" type="curve" smooth="yes"/>
      <point x="278" y="546"/>
      <point x="251" y="478"/>
      <point x="251" y="450" type="curve" smooth="yes"/>
      <point x="251" y="410"/>
      <point x="267" y="400"/>
      <point x="335" y="396" type="curve"/>
    </contour>
  </outline>
</glyph>
<glyph name="asciitilde" format="1">
  <advance width="522"/>
  <unicode hex="007E"/>
  <outline>
    <contour>
      <point x="482" y="370" type="curve" smooth="yes"/>
      <point x="482" y="303"/>
      <point x="431" y="258"/>
      <point x="364" y="258" type="curve" smooth="yes"/>
      <point x="313" y="258"/>
      <point x="279" y="273"/>
      <point x="236" y="295" type="curve" smooth="yes"/>
      <point x="213" y="306"/>
      <point x="193" y="315"/>
      <point x="177" y="315" type="curve" smooth="yes"/>
      <point x="160" y="315"/>
      <point x="152" y="310"/>
      <point x="152" y="296" type="curve" smooth="yes"/>
      <point x="152" y="288"/>
      <point x="154" y="280"/>
      <point x="160" y="271" type="curve"/>
      <point x="56" y="258" type="line"/>
      <point x="46" y="274"/>
      <point x="40" y="295"/>
      <point x="40" y="318" type="curve" smooth="yes"/>
      <point x="40" y="385"/>
      <point x="91" y="430"/>
      <point x="158" y="430" type="curve" smooth="yes"/>
      <point x="209" y="430"/>
      <point x="243" y="415"/>
      <point x="286" y="393" type="curve" smooth="yes"/>
      <point x="309" y="382"/>
      <point x="328" y="373"/>
      <point x="345" y="373" type="curve" smooth="yes"/>
      <point x="363" y="373"/>
      <point x="370" y="379"/>
      <point x="370" y="392" type="curve" smooth="yes"/>
      <point x="370" y="400"/>
      <point x="367" y="408"/>
      <point x="362" y="417" type="curve"/>
      <point x="466" y="430" type="line"/>
      <point x="477" y="412"/>
      <point x="482" y="391"/>
    </contour>
  </outline>
</glyph>
<glyph name="exclamdown" format="1">
  <advance width="270"/>
  <unicode hex="00A1"/>
  <outline>
    <contour>
      <point x="200" y="571" type="line"/>
      <point x="70" y="571" type="line"/>
      <point x="70" y="700" type="line"/>
      <point x="200" y="700" type="line"/>
    </contour>
    <contour>
      <point x="192" y="0" type="line"/>
      <point x="78" y="0" type="line"/>
      <point x="78" y="512" type="line"/>
      <point x="192" y="512" type="line"/>
    </contour>
  </outline>
</glyph>
<glyph name="cent" format="1">
  <advance width="470"/>
  <unicode hex="00A2"/>
  <outline>
    <contour>
      <point x="424" y="547" type="curve"/>
      <point x="395" y="511"/>
      <point x="388" y="466"/>
      <point x="388" y="425" type="curve"/>
      <point x="284" y="425" type="line"/>
      <point x="284" y="450"/>
      <point x="290" y="475"/>
      <point x="301" y="494" type="curve"/>
      <point x="287" y="504"/>
      <point x="275" y="507"/>
      <point x="244" y="507" type="curve" smooth="yes"/>
      <point x="190" y="507"/>
      <point x="150" y="458"/>
      <point x="150" y="358" type="curve" smooth="yes"/>
      <point x="150" y="263"/>
      <point x="183" y="213"/>
      <point x="246" y="213" type="curve" smooth="yes"/>
      <point x="298" y="213"/>
      <point x="315" y="240"/>
      <point x="315" y="274" type="curve" smooth="yes"/>
      <point x="315" y="287"/>
      <point x="312" y="302"/>
      <point x="302" y="318" type="curve"/>
      <point x="411" y="308" type="line"/>
      <point x="419" y="290"/>
      <point x="422" y="276"/>
      <point x="422" y="256" type="curve" smooth="yes"/>
      <point x="422" y="181"/>
      <point x="357" y="108"/>
      <point x="239" y="108" type="curve" smooth="yes"/>
      <point x="236" y="108"/>
      <point x="234" y="108"/>
      <point x="231" y="108" type="curve"/>
      <point x="201" y="0" type="line"/>
      <point x="91" y="0" type="line"/>
      <point x="129" y="140" type="line"/>
      <point x="71" y="180"/>
      <point x="40" y="258"/>
      <point x="40" y="356" type="curve" smooth="yes"/>
      <point x="40" y="512"/>
      <point x="119" y="605"/>
      <point x="244" y="606" type="curve"/>
      <point x="270" y="700" type="line"/>
      <point x="380" y="700" type="line"/>
      <point x="350" y="588" type="line"/>
      <point x="380" y="578"/>
      <point x="406" y="563"/>
    </contour>
  </outline>
</glyph>
<glyph name="sterling" format="1">
  <advance width="553"/>
  <unicode hex="00A3"/>
  <outline>
    <contour>
      <point x="525" y="0" type="curve"/>
      <point x="36" y="0" type="line"/>
      <point x="36" y="66" type="line"/>
      <point x="95" y="122"/>
      <point x="124" y="176"/>
      <point x="124" y="254" type="curve" smooth="yes"/>
      <point x="124" y="297"/>
      <point x="113" y="330"/>
      <point x="92" y="381" type="curve" smooth="yes"/>
      <point x="75" y="422"/>
      <point x="57" y="467"/>
      <point x="57" y="524" type="curve" smooth="yes"/>
      <point x="57" y="637"/>
      <point x="135" y="710"/>
      <point x="280" y="710" type="curve" smooth="yes"/>
      <point x="372" y="710"/>
      <point x="448" y="678"/>
      <point x="495" y="633" type="curve"/>
      <point x="467" y="589"/>
      <point x="460" y="549"/>
      <point x="460" y="490" type="curve"/>
      <point x="346" y="490" type="line"/>
      <point x="346" y="540"/>
      <point x="351" y="560"/>
      <point x="363" y="590" type="curve"/>
      <point x="344" y="601"/>
      <point x="318" y="606"/>
      <point x="277" y="606" type="curve" smooth="yes"/>
      <point x="211" y="606"/>
      <point x="178" y="574"/>
      <point x="178" y="520" type="curve" smooth="yes"/>
      <point x="178" y="495"/>
      <point x="186" y="472"/>
      <point x="196" y="448" type="curve" smooth="yes"/>
      <point x="205" y="426"/>
      <point x="215" y="403"/>
      <point x="223" y="374" type="curve"/>
      <point x="339" y="428" type="line"/>
      <point x="339" y="306" type="line"/>
      <point x="238" y="258" type="line"/>
      <point x="237" y="197"/>
      <point x="220" y="143"/>
      <point x="189" y="99" type="curve"/>
      <point x="387" y="99" type="line"/>
      <point x="379" y="133"/>
      <point x="376" y="176"/>
      <point x="375" y="227" type="curve"/>
      <point x="490" y="227" type="line"/>
      <point x="490" y="142"/>
      <point x="501" y="65"/>
    </contour>
  </outline>
</glyph>
<glyph name="yen" format="1">
  <advance width="610"/>
  <unicode hex="00A5"/>
  <outline>
    <contour>
      <point x="581" y="601" type="line"/>
      <point x="547" y="601"/>
      <point x="520" y="573"/>
      <point x="488" y="522" type="curve" smooth="yes"/>
      <point x="373" y="337" type="line"/>
      <point x="497" y="337" type="line"/>
      <point x="497" y="234" type="line"/>
      <point x="362" y="234" type="line"/>
      <point x="362" y="103" type="line"/>
      <point x="497" y="103" type="line"/>
      <point x="497" y="0" type="line"/>
      <point x="117" y="0" type="line"/>
      <point x="117" y="103" type="line"/>
      <point x="252" y="103" type="line"/>
      <point x="252" y="234" type="line"/>
      <point x="117" y="234" type="line"/>
      <point x="117" y="337" type="line"/>
      <point x="237" y="337" type="line"/>
      <point x="15" y="700" type="line"/>
      <point x="155" y="700" type="line"/>
      <point x="307" y="427" type="line"/>
      <point x="408" y="596" type="line" smooth="yes"/>
      <point x="455" y="674"/>
      <point x="486" y="710"/>
      <point x="581" y="710" type="curve"/>
    </contour>
  </outline>
</glyph>
<glyph name="section" format="1">
  <advance width="619"/>
  <unicode hex="00A7"/>
  <outline>
    <contour>
      <point x="579" y="234" type="curve" smooth="yes"/>
      <point x="579" y="153"/>
      <point x="544" y="111"/>
      <point x="490" y="75" type="curve"/>
      <point x="501" y="53"/>
      <point x="507" y="25"/>
      <point x="507" y="-10" type="curve" smooth="yes"/>
      <point x="507" y="-120"/>
      <point x="429" y="-187"/>
      <point x="304" y="-187" type="curve" smooth="yes"/>
      <point x="215" y="-187"/>
      <point x="124" y="-140"/>
      <point x="85" y="-87" type="curve"/>
      <point x="116" y="-49"/>
      <point x="127" y="-18"/>
      <point x="129" y="20" type="curve"/>
      <point x="245" y="20" type="line"/>
      <point x="245" y="-6"/>
      <point x="238" y="-39"/>
      <point x="225" y="-58" type="curve"/>
      <point x="248" y="-72"/>
      <point x="268" y="-82"/>
      <point x="304" y="-82" type="curve" smooth="yes"/>
      <point x="363" y="-82"/>
      <point x="388" y="-56"/>
      <point x="388" y="-13" type="curve" smooth="yes"/>
      <point x="388" y="30"/>
      <point x="361" y="49"/>
      <point x="249" y="84" type="curve" smooth="yes"/>
      <point x="111" y="128"/>
      <point x="30" y="168"/>
      <point x="30" y="289" type="curve" smooth="yes"/>
      <point x="30" y="370"/>
      <point x="65" y="412"/>
      <point x="119" y="447" type="curve"/>
      <point x="108" y="470"/>
      <point x="102" y="498"/>
      <point x="102" y="533" type="curve" smooth="yes"/>
      <point x="102" y="643"/>
      <point x="180" y="710"/>
      <point x="305" y="710" type="curve" smooth="yes"/>
      <point x="394" y="710"/>
      <point x="485" y="663"/>
      <point x="524" y="610" type="curve"/>
      <point x="493" y="572"/>
      <point x="482" y="541"/>
      <point x="480" y="503" type="curve"/>
      <point x="364" y="503" type="line"/>
      <point x="364" y="529"/>
      <point x="371" y="562"/>
      <point x="384" y="581" type="curve"/>
      <point x="361" y="595"/>
      <point x="341" y="605"/>
      <point x="305" y="605" type="curve" smooth="yes"/>
      <point x="246" y="605"/>
      <point x="221" y="579"/>
      <point x="221" y="536" type="curve" smooth="yes"/>
      <point x="221" y="493"/>
      <point x="248" y="474"/>
      <point x="360" y="439" type="curve" smooth="yes"/>
      <point x="498" y="395"/>
      <point x="579" y="355"/>
    </contour>
    <contour>
      <point x="457" y="218" type="curve" smooth="yes"/>
      <point x="457" y="265"/>
      <point x="419" y="295"/>
      <point x="315" y="329" type="curve" smooth="yes"/>
      <point x="266" y="345"/>
      <point x="225" y="360"/>
      <point x="193" y="377" type="curve"/>
      <point x="165" y="361"/>
      <point x="152" y="339"/>
      <point x="152" y="305" type="curve" smooth="yes"/>
      <point x="152" y="258"/>
      <point x="190" y="228"/>
      <point x="294" y="194" type="curve" smooth="yes"/>
      <point x="343" y="178"/>
      <point x="384" y="163"/>
      <point x="416" y="146" type="curve"/>
      <point x="444" y="162"/>
      <point x="457" y="184"/>
    </contour>
  </outline>
</glyph>
<glyph name="dieresis" format="1">
  <advance width="500"/>
  <unicode hex="00A8"/>
  <outline>
    <contour>
      <point x="408" y="737" type="line"/>
      <point x="290" y="737" type="line"/>
      <point x="290" y="859" type="line"/>
      <point x="408" y="859" type="line"/>
    </contour>
    <contour>
      <point x="210" y="737" type="line"/>
      <point x="92" y="737" type="line"/>
      <point x="92" y="859" type="line"/>
      <point x="210" y="859" type="line"/>
    </contour>
  </outline>
</glyph>
<glyph name="ordfeminine" format="1">
  <advance width="452"/>
  <unicode hex="00AA"/>
  <outline>
    <contour>
      <point x="402" y="273" type="line"/>
      <point x="309" y="273" type="line"/>
      <point x="283" y="380" type="line"/>
      <point x="163" y="343" type="line"/>
      <point x="147" y="273" type="line"/>
      <point x="53" y="273" type="line"/>
      <point x="134" y="615" type="line"/>
      <point x="65" y="615" type="line"/>
      <point x="65" y="700" type="line"/>
      <point x="391" y="700" type="line"/>
      <point x="391" y="615" type="line"/>
      <point x="321" y="615" type="line"/>
    </contour>
    <contour>
      <point x="262" y="466" type="line"/>
      <point x="225" y="618" type="line"/>
      <point x="185" y="441" type="line"/>
    </contour>
  </outline>
</glyph>
<glyph name="guillemotleft" format="1">
  <advance width="660"/>
  <unicode hex="00AB"/>
  <outline>
    <contour>
      <point x="622" y="83" type="curve"/>
      <point x="501" y="83" type="line"/>
      <point x="464" y="208"/>
      <point x="405" y="271"/>
      <point x="305" y="308" type="curve"/>
      <point x="305" y="386" type="line"/>
      <point x="405" y="423"/>
      <point x="464" y="484"/>
      <point x="501" y="613" type="curve"/>
      <point x="622" y="613" type="line"/>
      <point x="591" y="475"/>
      <point x="527" y="391"/>
      <point x="452" y="348" type="curve"/>
      <point x="527" y="305"/>
      <point x="591" y="221"/>
    </contour>
    <contour>
      <point x="347" y="83" type="curve"/>
      <point x="226" y="83" type="line"/>
      <point x="189" y="208"/>
      <point x="130" y="271"/>
      <point x="30" y="308" type="curve"/>
      <point x="30" y="386" type="line"/>
      <point x="130" y="423"/>
      <point x="189" y="484"/>
      <point x="226" y="613" type="curve"/>
      <point x="347" y="613" type="line"/>
      <point x="316" y="475"/>
      <point x="252" y="391"/>
      <point x="177" y="348" type="curve"/>
      <point x="252" y="305"/>
      <point x="316" y="221"/>
    </contour>
  </outline>
</glyph>
<glyph name="degree" format="1">
  <advance width="500"/>
  <unicode hex="00B0"/>
  <outline>
    <contour>
      <point x="450" y="510" type="curve" smooth="yes"/>
      <point x="450" y="397"/>
      <point x="363" y="310"/>
      <point x="250" y="310" type="curve" smooth="yes"/>
      <point x="137" y="310"/>
      <point x="50" y="397"/>
      <point x="50" y="510" type="curve" smooth="yes"/>
      <point x="50" y="623"/>
      <point x="137" y="710"/>
      <point x="250" y="710" type="curve" smooth="yes"/>
      <point x="363" y="710"/>
      <point x="450" y="623"/>
    </contour>
    <contour>
      <point x="349" y="511" type="curve" smooth="yes"/>
      <point x="349" y="567"/>
      <point x="308" y="611"/>
      <point x="250" y="611" type="curve" smooth="yes"/>
      <point x="192" y="611"/>
      <point x="151" y="567"/>
      <point x="151" y="511" type="curve" smooth="yes"/>
      <point x="151" y="455"/>
      <point x="192" y="408"/>
      <point x="250" y="408" type="curve" smooth="yes"/>
      <point x="308" y="408"/>
      <point x="349" y="455"/>
    </contour>
  </outline>
</glyph>
<glyph name="acute" format="1">
  <advance width="500"/>
  <unicode hex="00B4"/>
  <outline>
    <contour>
      <point x="374" y="852" type="line"/>
      <point x="344" y="776"/>
      <point x="286" y="742"/>
      <point x="185" y="730" type="curve"/>
      <point x="157" y="813" type="line"/>
      <point x="224" y="826"/>
      <point x="256" y="851"/>
      <point x="274" y="893" type="curve"/>
    </contour>
  </outline>
</glyph>
<glyph name="paragraph" format="1">
  <advance width="564"/>
  <unicode hex="00B6"/>
  <outline>
    <contour>
      <point x="498" y="0" type="line"/>
      <point x="218" y="0" type="line"/>
      <point x="218" y="116" type="line"/>
      <point x="378" y="116" type="line"/>
      <point x="378" y="217" type="line"/>
      <point x="251" y="262" type="line" smooth="yes"/>
      <point x="118" y="309"/>
      <point x="28" y="354"/>
      <point x="28" y="502" type="curve" smooth="yes"/>
      <point x="28" y="630"/>
      <point x="110" y="700"/>
      <point x="255" y="700" type="curve" smooth="yes"/>
      <point x="498" y="700" type="line"/>
    </contour>
  </outline>
</glyph>
<glyph name="periodcentered" format="1">
  <advance width="256"/>
  <unicode hex="00B7"/>
  <unicode hex="2219"/>
  <outline>
    <contour>
      <point x="193" y="285" type="line"/>
      <point x="63" y="285" type="line"/>
      <point x="63" y="414" type="line"/>
      <point x="193" y="414" type="line"/>
    </contour>
  </outline>
</glyph>
<glyph name="cedilla" format="1">
  <advance width="500"/>
  <unicode hex="00B8"/>
  <outline>
    <contour>
      <point x="360" y="-94" type="curve" smooth="yes"/>
      <point x="360" y="-157"/>
      <point x="314" y="-187"/>
      <point x="242" y="-187" type="curve" smooth="yes"/>
      <point x="190" y="-187"/>
      <point x="150" y="-169"/>
      <point x="119" y="-142" type="curve"/>
      <point x="134" y="-119"/>
      <point x="140" y="-92"/>
      <point x="140" y="-63" type="curve"/>
      <point x="219" y="-63" type="line"/>
      <point x="219" y="-81"/>
      <point x="217" y="-99"/>
      <point x="212" y="-114" type="curve"/>
      <point x="220" y="-117"/>
      <point x="232" y="-119"/>
      <point x="244" y="-119" type="curve" smooth="yes"/>
      <point x="266" y="-119"/>
      <point x="276" y="-107"/>
      <point x="276" y="-92" type="curve" smooth="yes"/>
      <point x="276" y="-62"/>
      <point x="248" y="-35"/>
      <point x="177" y="17" type="curve"/>
      <point x="288" y="17" type="line"/>
      <point x="327" y="-13"/>
      <point x="360" y="-45"/>
    </contour>
  </outline>
</glyph>
<glyph name="ordmasculine" format="1">
  <advance width="452"/>
  <unicode hex="00BA"/>
  <outline>
    <contour>
      <point x="412" y="487" type="curve" smooth="yes"/>
      <point x="412" y="355"/>
      <point x="347" y="262"/>
      <point x="225" y="262" type="curve" smooth="yes"/>
      <point x="105" y="262"/>
      <point x="40" y="354"/>
      <point x="40" y="485" type="curve" smooth="yes"/>
      <point x="40" y="617"/>
      <point x="105" y="710"/>
      <point x="227" y="710" type="curve" smooth="yes"/>
      <point x="347" y="710"/>
      <point x="412" y="618"/>
    </contour>
    <contour>
      <point x="309" y="485" type="curve" smooth="yes"/>
      <point x="309" y="562"/>
      <point x="284" y="611"/>
      <point x="225" y="611" type="curve" smooth="yes"/>
      <point x="168" y="611"/>
      <point x="143" y="563"/>
      <point x="143" y="487" type="curve" smooth="yes"/>
      <point x="143" y="410"/>
      <point x="168" y="361"/>
      <point x="227" y="361" type="curve" smooth="yes"/>
      <point x="284" y="361"/>
      <point x="309" y="409"/>
    </contour>
  </outline>
</glyph>
<glyph name="guillemotright" format="1">
  <advance width="660"/>
  <unicode hex="00BB"/>
  <outline>
    <contour>
      <point x="630" y="310" type="line"/>
      <point x="530" y="273"/>
      <point x="471" y="212"/>
      <point x="434" y="83" type="curve"/>
      <point x="313" y="83" type="line"/>
      <point x="344" y="221"/>
      <point x="408" y="305"/>
      <point x="483" y="348" type="curve"/>
      <point x="408" y="391"/>
      <point x="344" y="475"/>
      <point x="313" y="613" type="curve"/>
      <point x="434" y="613" type="line"/>
      <point x="471" y="488"/>
      <point x="530" y="425"/>
      <point x="630" y="388" type="curve"/>
    </contour>
    <contour>
      <point x="355" y="310" type="line"/>
      <point x="255" y="273"/>
      <point x="196" y="212"/>
      <point x="159" y="83" type="curve"/>
      <point x="38" y="83" type="line"/>
      <point x="69" y="221"/>
      <point x="133" y="305"/>
      <point x="208" y="348" type="curve"/>
      <point x="133" y="391"/>
      <point x="69" y="475"/>
      <point x="38" y="613" type="curve"/>
      <point x="159" y="613" type="line"/>
      <point x="196" y="488"/>
      <point x="255" y="425"/>
      <point x="355" y="388" type="curve"/>
    </contour>
  </outline>
</glyph>
<glyph name="questiondown" format="1">
  <advance width="493"/>
  <unicode hex="00BF"/>
  <outline>
    <contour>
      <point x="323" y="571" type="line"/>
      <point x="193" y="571" type="line"/>
      <point x="193" y="700" type="line"/>
      <point x="323" y="700" type="line"/>
    </contour>
    <contour>
      <point x="473" y="67" type="curve"/>
      <point x="426" y="22"/>
      <point x="350" y="-10"/>
      <point x="258" y="-10" type="curve" smooth="yes"/>
      <point x="113" y="-10"/>
      <point x="35" y="60"/>
      <point x="35" y="186" type="curve" smooth="yes"/>
      <point x="35" y="284"/>
      <point x="82" y="328"/>
      <point x="129" y="359" type="curve" smooth="yes"/>
      <point x="191" y="400"/>
      <point x="205" y="422"/>
      <point x="205" y="453" type="curve" smooth="yes"/>
      <point x="205" y="478"/>
      <point x="204" y="493"/>
      <point x="200" y="512" type="curve"/>
      <point x="317" y="512" type="line"/>
      <point x="322" y="489"/>
      <point x="324" y="467"/>
      <point x="324" y="441" type="curve" smooth="yes"/>
      <point x="324" y="385"/>
      <point x="301" y="339"/>
      <point x="236" y="300" type="curve" smooth="yes"/>
      <point x="184" y="269"/>
      <point x="156" y="248"/>
      <point x="156" y="190" type="curve" smooth="yes"/>
      <point x="156" y="117"/>
      <point x="190" y="93"/>
      <point x="268" y="93" type="curve" smooth="yes"/>
      <point x="305" y="93"/>
      <point x="325" y="100"/>
      <point x="339" y="108" type="curve"/>
      <point x="327" y="138"/>
      <point x="322" y="159"/>
      <point x="322" y="220" type="curve"/>
      <point x="438" y="220" type="line"/>
      <point x="438" y="148"/>
      <point x="445" y="111"/>
    </contour>
  </outline>
</glyph>
<glyph name="Aring" format="1">
  <advance width="604"/>
  <unicode hex="00C5"/>
  <outline>
    <contour>
      <point x="567" y="0" type="line"/>
      <point x="451" y="0" type="line"/>
      <point x="403" y="188" type="line"/>
      <point x="182" y="118" type="line"/>
      <point x="153" y="0" type="line"/>
      <point x="37" y="0" type="line"/>
      <point x="187" y="589" type="line"/>
      <point x="82" y="589" type="line"/>
      <point x="82" y="700" type="line"/>
      <point x="182" y="700" type="line"/>
      <point x="175" y="715"/>
      <point x="172" y="732"/>
      <point x="172" y="749" type="curve" smooth="yes"/>
      <point x="172" y="820"/>
      <point x="231" y="879"/>
      <point x="302" y="879" type="curve" smooth="yes"/>
      <point x="373" y="879"/>
      <point x="432" y="820"/>
      <point x="432" y="749" type="curve" smooth="yes"/>
      <point x="432" y="732"/>
      <point x="429" y="715"/>
      <point x="422" y="700" type="curve"/>
      <point x="522" y="700" type="line"/>
      <point x="522" y="589" type="line"/>
      <point x="415" y="589" type="line"/>
    </contour>
    <contour>
      <point x="355" y="750" type="curve" smooth="yes"/>
      <point x="355" y="779"/>
      <point x="332" y="801"/>
      <point x="302" y="801" type="curve" smooth="yes"/>
      <point x="272" y="801"/>
      <point x="250" y="779"/>
      <point x="250" y="750" type="curve" smooth="yes"/>
      <point x="250" y="720"/>
      <point x="272" y="696"/>
      <point x="302" y="696" type="curve" smooth="yes"/>
      <point x="332" y="696"/>
      <point x="355" y="720"/>
    </contour>
    <contour>
      <point x="375" y="296" type="line"/>
      <point x="298" y="597" type="line"/>
      <point x="212" y="243" type="line"/>
    </contour>
  </outline>
</glyph>
<glyph name="Ccedilla" format="1">
  <advance width="555"/>
  <unicode hex="00C7"/>
  <outline>
    <contour>
      <point x="516" y="195" type="curve" smooth="yes"/>
      <point x="516" y="96"/>
      <point x="459" y="15"/>
      <point x="349" y="-5" type="curve"/>
      <point x="375" y="-29"/>
      <point x="394" y="-57"/>
      <point x="394" y="-94" type="curve" smooth="yes"/>
      <point x="394" y="-157"/>
      <point x="348" y="-187"/>
      <point x="276" y="-187" type="curve" smooth="yes"/>
      <point x="224" y="-187"/>
      <point x="184" y="-169"/>
      <point x="153" y="-142" type="curve"/>
      <point x="168" y="-119"/>
      <point x="174" y="-92"/>
      <point x="174" y="-63" type="curve"/>
      <point x="253" y="-63" type="line"/>
      <point x="253" y="-81"/>
      <point x="251" y="-99"/>
      <point x="246" y="-114" type="curve"/>
      <point x="254" y="-117"/>
      <point x="266" y="-119"/>
      <point x="278" y="-119" type="curve" smooth="yes"/>
      <point x="300" y="-119"/>
      <point x="310" y="-107"/>
      <point x="310" y="-92" type="curve" smooth="yes"/>
      <point x="310" y="-67"/>
      <point x="290" y="-43"/>
      <point x="241" y="-6" type="curve"/>
      <point x="102" y="20"/>
      <point x="40" y="152"/>
      <point x="40" y="350" type="curve" smooth="yes"/>
      <point x="40" y="578"/>
      <point x="118" y="710"/>
      <point x="295" y="710" type="curve" smooth="yes"/>
      <point x="385" y="710"/>
      <point x="463" y="679"/>
      <point x="504" y="626" type="curve"/>
      <point x="472" y="584"/>
      <point x="459" y="540"/>
      <point x="459" y="480" type="curve"/>
      <point x="342" y="480" type="line"/>
      <point x="342" y="515"/>
      <point x="352" y="552"/>
      <point x="369" y="578" type="curve"/>
      <point x="354" y="588"/>
      <point x="330" y="593"/>
      <point x="293" y="593" type="curve" smooth="yes"/>
      <point x="198" y="593"/>
      <point x="164" y="513"/>
      <point x="164" y="352" type="curve" smooth="yes"/>
      <point x="164" y="202"/>
      <point x="195" y="107"/>
      <point x="295" y="107" type="curve" smooth="yes"/>
      <point x="365" y="107"/>
      <point x="402" y="147"/>
      <point x="402" y="213" type="curve" smooth="yes"/>
      <point x="402" y="235"/>
      <point x="397" y="263"/>
      <point x="383" y="289" type="curve"/>
      <point x="502" y="276" type="line"/>
      <point x="512" y="249"/>
      <point x="516" y="222"/>
    </contour>
  </outline>
</glyph>
<glyph name="Eth" format="1">
  <advance width="583"/>
  <unicode hex="00D0"/>
  <outline>
    <contour>
      <point x="538" y="352" type="curve" smooth="yes"/>
      <point x="538" y="116"/>
      <point x="469" y="0"/>
      <point x="279" y="0" type="curve" smooth="yes"/>
      <point x="80" y="0" type="line"/>
      <point x="80" y="246" type="line"/>
      <point x="30" y="223" type="line"/>
      <point x="30" y="352" type="line"/>
      <point x="80" y="375" type="line"/>
      <point x="80" y="700" type="line"/>
      <point x="281" y="700" type="line" smooth="yes"/>
      <point x="475" y="700"/>
      <point x="538" y="573"/>
    </contour>
    <contour>
      <point x="414" y="350" type="curve" smooth="yes"/>
      <point x="414" y="532"/>
      <point x="371" y="584"/>
      <point x="271" y="584" type="curve" smooth="yes"/>
      <point x="197" y="584" type="line"/>
      <point x="197" y="429" type="line"/>
      <point x="268" y="462" type="line"/>
      <point x="268" y="334" type="line"/>
      <point x="197" y="301" type="line"/>
      <point x="197" y="116" type="line"/>
      <point x="271" y="116" type="line" smooth="yes"/>
      <point x="370" y="116"/>
      <point x="414" y="159"/>
    </contour>
  </outline>
</glyph>
<glyph name="Oslash" format="1">
  <advance width="590"/>
  <unicode hex="00D8"/>
  <outline>
    <contour>
      <point x="550" y="351" type="curve" smooth="yes"/>
      <point x="550" y="130"/>
      <point x="470" y="-10"/>
      <point x="294" y="-10" type="curve" smooth="yes"/>
      <point x="275" y="-10"/>
      <point x="258" y="-8"/>
      <point x="241" y="-5" type="curve"/>
      <point x="228" y="-50" type="line"/>
      <point x="120" y="-50" type="line"/>
      <point x="146" y="37" type="line"/>
      <point x="73" y="95"/>
      <point x="40" y="204"/>
      <point x="40" y="349" type="curve" smooth="yes"/>
      <point x="40" y="570"/>
      <point x="120" y="710"/>
      <point x="296" y="710" type="curve" smooth="yes"/>
      <point x="314" y="710"/>
      <point x="331" y="709"/>
      <point x="347" y="706" type="curve"/>
      <point x="360" y="750" type="line"/>
      <point x="468" y="750" type="line"/>
      <point x="442" y="664" type="line"/>
      <point x="516" y="606"/>
      <point x="550" y="496"/>
    </contour>
    <contour>
      <point x="314" y="597" type="line"/>
      <point x="308" y="599"/>
      <point x="301" y="599"/>
      <point x="294" y="599" type="curve" smooth="yes"/>
      <point x="192" y="599"/>
      <point x="158" y="505"/>
      <point x="158" y="351" type="curve" smooth="yes"/>
      <point x="158" y="277"/>
      <point x="166" y="216"/>
      <point x="187" y="172" type="curve"/>
    </contour>
    <contour>
      <point x="432" y="349" type="curve" smooth="yes"/>
      <point x="432" y="425"/>
      <point x="423" y="487"/>
      <point x="402" y="530" type="curve"/>
      <point x="274" y="102" type="line"/>
      <point x="281" y="102"/>
      <point x="288" y="101"/>
      <point x="296" y="101" type="curve" smooth="yes"/>
      <point x="398" y="101"/>
      <point x="432" y="195"/>
    </contour>
  </outline>
</glyph>
<glyph name="aring" format="1">
  <advance width="604"/>
  <unicode hex="00E5"/>
  <outline>
    <contour>
      <point x="567" y="0" type="line"/>
      <point x="451" y="0" type="line"/>
      <point x="412" y="153" type="line"/>
      <point x="301" y="69" type="line"/>
      <point x="190" y="154" type="line"/>
      <point x="153" y="0" type="line"/>
      <point x="37" y="0" type="line"/>
      <point x="187" y="589" type="line"/>
      <point x="82" y="589" type="line"/>
      <point x="82" y="700" type="line"/>
      <point x="182" y="700" type="line"/>
      <point x="175" y="715"/>
      <point x="172" y="732"/>
      <point x="172" y="749" type="curve" smooth="yes"/>
      <point x="172" y="820"/>
      <point x="231" y="879"/>
      <point x="302" y="879" type="curve" smooth="yes"/>
      <point x="373" y="879"/>
      <point x="432" y="820"/>
      <point x="432" y="749" type="curve" smooth="yes"/>
      <point x="432" y="732"/>
      <point x="429" y="715"/>
      <point x="422" y="700" type="curve"/>
      <point x="522" y="700" type="line"/>
      <point x="522" y="589" type="line"/>
      <point x="415" y="589" type="line"/>
    </contour>
    <contour>
      <point x="355" y="750" type="curve" smooth="yes"/>
      <point x="355" y="779"/>
      <point x="332" y="801"/>
      <point x="302" y="801" type="curve" smooth="yes"/>
      <point x="272" y="801"/>
      <point x="250" y="779"/>
      <point x="250" y="750" type="curve" smooth="yes"/>
      <point x="250" y="720"/>
      <point x="272" y="696"/>
      <point x="302" y="696" type="curve" smooth="yes"/>
      <point x="332" y="696"/>
      <point x="355" y="720"/>
    </contour>
    <contour>
      <point x="384" y="261" type="line"/>
      <point x="298" y="597" type="line"/>
      <point x="217" y="265" type="line"/>
      <point x="303" y="199" type="line"/>
    </contour>
  </outline>
</glyph>
<glyph name="ae" format="1">
  <advance width="832"/>
  <unicode hex="00E6"/>
  <outline>
    <contour>
      <point x="791" y="0" type="line"/>
      <point x="387" y="0" type="line"/>
      <point x="387" y="209" type="line"/>
      <point x="189" y="123" type="line"/>
      <point x="136" y="0" type="line"/>
      <point x="20" y="0" type="line"/>
      <point x="277" y="589" type="line"/>
      <point x="172" y="589" type="line"/>
      <point x="172" y="700" type="line"/>
      <point x="786" y="700" type="line"/>
      <point x="786" y="586" type="line"/>
      <point x="507" y="586" type="line"/>
      <point x="507" y="381" type="line"/>
      <point x="661" y="453" type="line"/>
      <point x="661" y="331" type="line"/>
      <point x="507" y="262" type="line"/>
      <point x="507" y="114" type="line"/>
      <point x="791" y="114" type="line"/>
    </contour>
    <contour>
      <point x="387" y="325" type="line"/>
      <point x="387" y="582" type="line"/>
      <point x="248" y="261" type="line"/>
    </contour>
  </outline>
</glyph>
<glyph name="eth" format="1">
  <advance width="583"/>
  <unicode hex="00F0"/>
  <outline>
    <contour>
      <point x="543" y="455" type="curve" smooth="yes"/>
      <point x="543" y="238"/>
      <point x="392" y="0"/>
      <point x="135" y="0" type="curve" smooth="yes"/>
      <point x="80" y="0" type="line"/>
      <point x="80" y="251" type="line"/>
      <point x="30" y="228" type="line"/>
      <point x="30" y="357" type="line"/>
      <point x="80" y="380" type="line"/>
      <point x="80" y="700" type="line"/>
      <point x="281" y="700" type="line" smooth="yes"/>
      <point x="468" y="700"/>
      <point x="543" y="628"/>
    </contour>
    <contour>
      <point x="419" y="453" type="curve" smooth="yes"/>
      <point x="419" y="553"/>
      <point x="379" y="584"/>
      <point x="271" y="584" type="curve" smooth="yes"/>
      <point x="197" y="584" type="line"/>
      <point x="197" y="434" type="line"/>
      <point x="268" y="467" type="line"/>
      <point x="268" y="339" type="line"/>
      <point x="197" y="306" type="line"/>
      <point x="197" y="126" type="line"/>
      <point x="267" y="144"/>
      <point x="315" y="175"/>
      <point x="360" y="244" type="curve" smooth="yes"/>
      <point x="401" y="307"/>
      <point x="419" y="370"/>
    </contour>
  </outline>
</glyph>
<glyph name="oslash" format="1">
  <advance width="490"/>
  <unicode hex="00F8"/>
  <outline>
    <contour>
      <point x="454" y="462" type="curve" smooth="yes"/>
      <point x="454" y="315"/>
      <point x="382" y="212"/>
      <point x="246" y="212" type="curve" smooth="yes"/>
      <point x="227" y="212"/>
      <point x="210" y="214"/>
      <point x="194" y="218" type="curve"/>
      <point x="175" y="172" type="line"/>
      <point x="77" y="172" type="line"/>
      <point x="113" y="259" type="line"/>
      <point x="65" y="303"/>
      <point x="40" y="374"/>
      <point x="40" y="460" type="curve" smooth="yes"/>
      <point x="40" y="607"/>
      <point x="112" y="710"/>
      <point x="248" y="710" type="curve" smooth="yes"/>
      <point x="266" y="710"/>
      <point x="283" y="708"/>
      <point x="298" y="705" type="curve"/>
      <point x="317" y="750" type="line"/>
      <point x="415" y="750" type="line"/>
      <point x="379" y="664" type="line"/>
      <point x="428" y="621"/>
      <point x="454" y="549"/>
    </contour>
    <contour>
      <point x="317" y="0" type="line"/>
      <point x="177" y="0" type="line"/>
      <point x="177" y="134" type="line"/>
      <point x="317" y="134" type="line"/>
    </contour>
    <contour>
      <point x="259" y="609" type="line"/>
      <point x="255" y="610"/>
      <point x="250" y="610"/>
      <point x="246" y="610" type="curve" smooth="yes"/>
      <point x="177" y="610"/>
      <point x="146" y="554"/>
      <point x="146" y="462" type="curve" smooth="yes"/>
      <point x="146" y="426"/>
      <point x="151" y="396"/>
      <point x="160" y="372" type="curve"/>
    </contour>
    <contour>
      <point x="348" y="460" type="curve" smooth="yes"/>
      <point x="348" y="497"/>
      <point x="343" y="528"/>
      <point x="333" y="552" type="curve"/>
      <point x="233" y="313" type="line"/>
      <point x="238" y="312"/>
      <point x="243" y="312"/>
      <point x="248" y="312" type="curve" smooth="yes"/>
      <point x="317" y="312"/>
      <point x="348" y="368"/>
    </contour>
  </outline>
</glyph>
<glyph name="thorn" format="1">
  <advance width="564"/>
  <unicode hex="00FE"/>
  <outline>
    <contour>
      <point x="540" y="393" type="curve" smooth="yes"/>
      <point x="540" y="221"/>
      <point x="414" y="176"/>
      <point x="224" y="125" type="curve"/>
      <point x="224" y="243" type="line"/>
      <point x="377" y="282"/>
      <point x="420" y="316"/>
      <point x="420" y="383" type="curve" smooth="yes"/>
      <point x="420" y="446"/>
      <point x="385" y="476"/>
      <point x="310" y="476" type="curve" smooth="yes"/>
      <point x="190" y="476" type="line"/>
      <point x="190" y="0" type="line"/>
      <point x="70" y="0" type="line"/>
      <point x="70" y="700" type="line"/>
      <point x="190" y="700" type="line"/>
      <point x="190" y="591" type="line"/>
      <point x="313" y="591" type="line" smooth="yes"/>
      <point x="458" y="591"/>
      <point x="540" y="521"/>
    </contour>
  </outline>
</glyph>
<glyph name="Lslash" format="1">
  <advance width="508"/>
  <unicode hex="0141"/>
  <outline>
    <contour>
      <point x="478" y="0" type="line"/>
      <point x="80" y="0" type="line"/>
      <point x="80" y="266" type="line"/>
      <point x="30" y="243" type="line"/>
      <point x="30" y="372" type="line"/>
      <point x="80" y="395" type="line"/>
      <point x="80" y="700" type="line"/>
      <point x="200" y="700" type="line"/>
      <point x="200" y="450" type="line"/>
      <point x="299" y="496" type="line"/>
      <point x="299" y="368" type="line"/>
      <point x="200" y="322" type="line"/>
      <point x="200" y="116" type="line"/>
      <point x="478" y="116" type="line"/>
    </contour>
  </outline>
</glyph>
<glyph name="lslash" format="1">
  <advance width="538"/>
  <unicode hex="0142"/>
  <outline>
    <contour>
      <point x="498" y="0" type="line"/>
      <point x="80" y="0" type="line"/>
      <point x="80" y="266" type="line"/>
      <point x="30" y="243" type="line"/>
      <point x="30" y="372" type="line"/>
      <point x="80" y="395" type="line"/>
      <point x="80" y="700" type="line"/>
      <point x="200" y="700" type="line"/>
      <point x="200" y="450" type="line"/>
      <point x="299" y="496" type="line"/>
      <point x="299" y="368" type="line"/>
      <point x="200" y="322" type="line"/>
      <point x="200" y="111" type="line"/>
      <point x="380" y="111" type="line"/>
      <point x="380" y="242" type="line"/>
      <point x="498" y="242" type="line"/>
    </contour>
  </outline>
</glyph>
<glyph name="OE" format="1">
  <advance width="878"/>
  <unicode hex="0152"/>
  <outline>
    <contour>
      <point x="837" y="0" type="line"/>
      <point x="448" y="0" type="line"/>
      <point x="448" y="72" type="line"/>
      <point x="418" y="23"/>
      <point x="369" y="-10"/>
      <point x="294" y="-10" type="curve" smooth="yes"/>
      <point x="118" y="-10"/>
      <point x="40" y="128"/>
      <point x="40" y="349" type="curve" smooth="yes"/>
      <point x="40" y="570"/>
      <point x="120" y="710"/>
      <point x="296" y="710" type="curve" smooth="yes"/>
      <point x="364" y="710"/>
      <point x="417" y="681"/>
      <point x="448" y="633" type="curve"/>
      <point x="448" y="700" type="line"/>
      <point x="832" y="700" type="line"/>
      <point x="832" y="586" type="line"/>
      <point x="543" y="586" type="line"/>
      <point x="543" y="381" type="line"/>
      <point x="707" y="457" type="line"/>
      <point x="707" y="331" type="line"/>
      <point x="543" y="254" type="line"/>
      <point x="543" y="114" type="line"/>
      <point x="837" y="114" type="line"/>
    </contour>
    <contour>
      <point x="427" y="349" type="curve" smooth="yes"/>
      <point x="427" y="500"/>
      <point x="394" y="594"/>
      <point x="294" y="594" type="curve" smooth="yes"/>
      <point x="194" y="594"/>
      <point x="163" y="502"/>
      <point x="163" y="351" type="curve" smooth="yes"/>
      <point x="163" y="200"/>
      <point x="196" y="106"/>
      <point x="296" y="106" type="curve" smooth="yes"/>
      <point x="396" y="106"/>
      <point x="427" y="198"/>
    </contour>
  </outline>
</glyph>
<glyph name="oe" format="1">
  <advance width="937"/>
  <unicode hex="0153"/>
  <outline>
    <contour>
      <point x="902" y="626" type="curve"/>
      <point x="870" y="584"/>
      <point x="857" y="550"/>
      <point x="857" y="490" type="curve"/>
      <point x="740" y="490" type="line"/>
      <point x="740" y="521"/>
      <point x="746" y="551"/>
      <point x="761" y="580" type="curve"/>
      <point x="745" y="589"/>
      <point x="722" y="594"/>
      <point x="678" y="594" type="curve" smooth="yes"/>
      <point x="596" y="594"/>
      <point x="557" y="534"/>
      <point x="547" y="415" type="curve"/>
      <point x="700" y="415" type="line"/>
      <point x="700" y="307" type="line"/>
      <point x="546" y="307" type="line"/>
      <point x="553" y="179"/>
      <point x="590" y="106"/>
      <point x="677" y="106" type="curve" smooth="yes"/>
      <point x="747" y="106"/>
      <point x="784" y="142"/>
      <point x="784" y="203" type="curve" smooth="yes"/>
      <point x="784" y="232"/>
      <point x="778" y="253"/>
      <point x="768" y="279" type="curve"/>
      <point x="887" y="266" type="line"/>
      <point x="895" y="239"/>
      <point x="898" y="223"/>
      <point x="898" y="190" type="curve" smooth="yes"/>
      <point x="898" y="78"/>
      <point x="821" y="-10"/>
      <point x="675" y="-10" type="curve" smooth="yes"/>
      <point x="575" y="-10"/>
      <point x="516" y="43"/>
      <point x="485" y="118" type="curve"/>
      <point x="449" y="42"/>
      <point x="396" y="-10"/>
      <point x="294" y="-10" type="curve" smooth="yes"/>
      <point x="118" y="-10"/>
      <point x="40" y="128"/>
      <point x="40" y="349" type="curve" smooth="yes"/>
      <point x="40" y="570"/>
      <point x="120" y="710"/>
      <point x="296" y="710" type="curve" smooth="yes"/>
      <point x="399" y="710"/>
      <point x="457" y="665"/>
      <point x="486" y="592" type="curve"/>
      <point x="518" y="662"/>
      <point x="581" y="710"/>
      <point x="680" y="710" type="curve" smooth="yes"/>
      <point x="780" y="710"/>
      <point x="849" y="677"/>
    </contour>
    <contour>
      <point x="427" y="349" type="curve" smooth="yes"/>
      <point x="427" y="500"/>
      <point x="394" y="594"/>
      <point x="294" y="594" type="curve" smooth="yes"/>
      <point x="194" y="594"/>
      <point x="163" y="502"/>
      <point x="163" y="351" type="curve" smooth="yes"/>
      <point x="163" y="200"/>
      <point x="196" y="106"/>
      <point x="296" y="106" type="curve" smooth="yes"/>
      <point x="396" y="106"/>
      <point x="427" y="198"/>
    </contour>
  </outline>
</glyph>
<glyph name="florin" format="1">
  <advance width="490"/>
  <unicode hex="0192"/>
  <outline>
    <contour>
      <point x="469" y="651" type="curve"/>
      <point x="441" y="612"/>
      <point x="433" y="560"/>
      <point x="433" y="519" type="curve"/>
      <point x="319" y="519" type="line"/>
      <point x="319" y="544"/>
      <point x="325" y="569"/>
      <point x="336" y="588" type="curve"/>
      <point x="320" y="597"/>
      <point x="300" y="601"/>
      <point x="269" y="601" type="curve" smooth="yes"/>
      <point x="217" y="601"/>
      <point x="183" y="573"/>
      <point x="183" y="482" type="curve" smooth="yes"/>
      <point x="183" y="375" type="line"/>
      <point x="319" y="445" type="line"/>
      <point x="319" y="324" type="line"/>
      <point x="183" y="252" type="line"/>
      <point x="183" y="0" type="line"/>
      <point x="65" y="0" type="line"/>
      <point x="65" y="477" type="line" smooth="yes"/>
      <point x="65" y="641"/>
      <point x="145" y="710"/>
      <point x="271" y="710" type="curve" smooth="yes"/>
      <point x="362" y="710"/>
      <point x="416" y="690"/>
    </contour>
  </outline>
</glyph>
<glyph name="circumflex" format="1">
  <advance width="500"/>
  <unicode hex="02C6"/>
  <outline>
    <contour>
      <point x="411" y="811" type="curve"/>
      <point x="382" y="730" type="line"/>
      <point x="316" y="743"/>
      <point x="278" y="764"/>
      <point x="250" y="797" type="curve"/>
      <point x="222" y="764"/>
      <point x="184" y="743"/>
      <point x="118" y="730" type="curve"/>
      <point x="89" y="811" type="line"/>
      <point x="156" y="826"/>
      <point x="190" y="855"/>
      <point x="203" y="893" type="curve"/>
      <point x="298" y="893" type="line"/>
      <point x="311" y="855"/>
      <point x="343" y="826"/>
    </contour>
  </outline>
</glyph>
<glyph name="caron" format="1">
  <advance width="500"/>
  <unicode hex="02C7"/>
  <outline>
    <contour>
      <point x="411" y="812" type="line"/>
      <point x="344" y="797"/>
      <point x="310" y="768"/>
      <point x="297" y="730" type="curve"/>
      <point x="202" y="730" type="line"/>
      <point x="189" y="768"/>
      <point x="157" y="797"/>
      <point x="89" y="812" type="curve"/>
      <point x="118" y="893" type="line"/>
      <point x="184" y="880"/>
      <point x="222" y="859"/>
      <point x="250" y="826" type="curve"/>
      <point x="278" y="859"/>
      <point x="316" y="880"/>
      <point x="382" y="893" type="curve"/>
    </contour>
  </outline>
</glyph>
<glyph name="breve" format="1">
  <advance width="500"/>
  <unicode hex="02D8"/>
  <outline>
    <contour>
      <point x="421" y="822" type="line"/>
      <point x="375" y="759"/>
      <point x="312" y="730"/>
      <point x="250" y="730" type="curve" smooth="yes"/>
      <point x="188" y="730"/>
      <point x="125" y="759"/>
      <point x="79" y="822" type="curve"/>
      <point x="138" y="888" type="line"/>
      <point x="178" y="844"/>
      <point x="210" y="826"/>
      <point x="250" y="826" type="curve" smooth="yes"/>
      <point x="290" y="826"/>
      <point x="322" y="844"/>
      <point x="362" y="888" type="curve"/>
    </contour>
  </outline>
</glyph>
<glyph name="dotaccent" format="1">
  <advance width="500"/>
  <unicode hex="02D9"/>
  <outline>
    <contour>
      <point x="309" y="737" type="line"/>
      <point x="191" y="737" type="line"/>
      <point x="191" y="859" type="line"/>
      <point x="309" y="859" type="line"/>
    </contour>
  </outline>
</glyph>
<glyph name="ring" format="1">
  <advance width="500"/>
  <unicode hex="02DA"/>
  <outline>
    <contour>
      <point x="380" y="860" type="curve" smooth="yes"/>
      <point x="380" y="789"/>
      <point x="321" y="730"/>
      <point x="250" y="730" type="curve" smooth="yes"/>
      <point x="179" y="730"/>
      <point x="120" y="789"/>
      <point x="120" y="860" type="curve" smooth="yes"/>
      <point x="120" y="931"/>
      <point x="179" y="990"/>
      <point x="250" y="990" type="curve" smooth="yes"/>
      <point x="321" y="990"/>
      <point x="380" y="931"/>
    </contour>
    <contour>
      <point x="303" y="861" type="curve" smooth="yes"/>
      <point x="303" y="890"/>
      <point x="280" y="912"/>
      <point x="250" y="912" type="curve" smooth="yes"/>
      <point x="220" y="912"/>
      <point x="198" y="890"/>
      <point x="198" y="861" type="curve" smooth="yes"/>
      <point x="198" y="831"/>
      <point x="220" y="807"/>
      <point x="250" y="807" type="curve" smooth="yes"/>
      <point x="280" y="807"/>
      <point x="303" y="831"/>
    </contour>
  </outline>
</glyph>
<glyph name="ogonek" format="1">
  <advance width="500"/>
  <unicode hex="02DB"/>
  <outline>
    <contour>
      <point x="372" y="-142" type="curve"/>
      <point x="341" y="-169"/>
      <point x="301" y="-187"/>
      <point x="249" y="-187" type="curve" smooth="yes"/>
      <point x="177" y="-187"/>
      <point x="131" y="-157"/>
      <point x="131" y="-94" type="curve" smooth="yes"/>
      <point x="131" y="-48"/>
      <point x="163" y="-15"/>
      <point x="183" y="0" type="curve"/>
      <point x="286" y="0" type="line"/>
      <point x="245" y="-34"/>
      <point x="215" y="-62"/>
      <point x="215" y="-92" type="curve" smooth="yes"/>
      <point x="215" y="-107"/>
      <point x="225" y="-119"/>
      <point x="247" y="-119" type="curve" smooth="yes"/>
      <point x="259" y="-119"/>
      <point x="271" y="-117"/>
      <point x="279" y="-114" type="curve"/>
      <point x="274" y="-99"/>
      <point x="272" y="-81"/>
      <point x="272" y="-63" type="curve"/>
      <point x="351" y="-63" type="line"/>
      <point x="351" y="-92"/>
      <point x="357" y="-119"/>
    </contour>
  </outline>
</glyph>
<glyph name="tilde" format="1">
  <advance width="500"/>
  <unicode hex="02DC"/>
  <outline>
    <contour>
      <point x="437" y="825" type="curve" smooth="yes"/>
      <point x="437" y="768"/>
      <point x="395" y="730"/>
      <point x="340" y="730" type="curve" smooth="yes"/>
      <point x="296" y="730"/>
      <point x="269" y="743"/>
      <point x="232" y="762" type="curve" smooth="yes"/>
      <point x="213" y="771"/>
      <point x="195" y="779"/>
      <point x="182" y="779" type="curve" smooth="yes"/>
      <point x="165" y="779"/>
      <point x="158" y="775"/>
      <point x="158" y="761" type="curve" smooth="yes"/>
      <point x="158" y="755"/>
      <point x="160" y="749"/>
      <point x="163" y="741" type="curve"/>
      <point x="80" y="730" type="line"/>
      <point x="73" y="744"/>
      <point x="69" y="761"/>
      <point x="69" y="779" type="curve" smooth="yes"/>
      <point x="69" y="836"/>
      <point x="110" y="873"/>
      <point x="165" y="873" type="curve" smooth="yes"/>
      <point x="209" y="873"/>
      <point x="236" y="861"/>
      <point x="273" y="842" type="curve" smooth="yes"/>
      <point x="292" y="833"/>
      <point x="309" y="824"/>
      <point x="323" y="824" type="curve" smooth="yes"/>
      <point x="341" y="824"/>
      <point x="348" y="831"/>
      <point x="348" y="843" type="curve" smooth="yes"/>
      <point x="348" y="849"/>
      <point x="345" y="855"/>
      <point x="341" y="863" type="curve"/>
      <point x="425" y="874" type="line"/>
      <point x="433" y="859"/>
      <point x="437" y="842"/>
    </contour>
  </outline>
</glyph>
<glyph name="hungarumlaut" format="1">
  <advance width="500"/>
  <unicode hex="02DD"/>
  <outline>
    <contour>
      <point x="474" y="852" type="line"/>
      <point x="449" y="776"/>
      <point x="399" y="742"/>
      <point x="314" y="730" type="curve"/>
      <point x="290" y="813" type="line"/>
      <point x="347" y="826"/>
      <point x="374" y="851"/>
      <point x="389" y="893" type="curve"/>
    </contour>
    <contour>
      <point x="276" y="852" type="line"/>
      <point x="250" y="776"/>
      <point x="201" y="742"/>
      <point x="115" y="730" type="curve"/>
      <point x="91" y="813" type="line"/>
      <point x="148" y="826"/>
      <point x="175" y="851"/>
      <point x="191" y="893" type="curve"/>
    </contour>
  </outline>
</glyph>
<glyph name="endash" format="1">
  <advance width="400"/>
  <unicode hex="2013"/>
  <outline>
    <contour>
      <point x="360" y="301" type="line"/>
      <point x="40" y="301" type="line"/>
      <point x="40" y="421" type="line"/>
      <point x="360" y="421" type="line"/>
    </contour>
  </outline>
</glyph>
<glyph name="emdash" format="1">
  <advance width="550"/>
  <unicode hex="2014"/>
  <outline>
    <contour>
      <point x="510" y="301" type="line"/>
      <point x="40" y="301" type="line"/>
      <point x="40" y="421" type="line"/>
      <point x="510" y="421" type="line"/>
    </contour>
  </outline>
</glyph>
<glyph name="quoteleft" format="1">
  <advance width="274"/>
  <unicode hex="2018"/>
  <unicode hex="02BB"/>
  <outline>
    <contour>
      <point x="232" y="467" type="line"/>
      <point x="112" y="467" type="line"/>
      <point x="42" y="700" type="line"/>
      <point x="162" y="700" type="line"/>
    </contour>
  </outline>
</glyph>
<glyph name="quoteright" format="1">
  <advance width="274"/>
  <unicode hex="2019"/>
  <unicode hex="02BC"/>
  <outline>
    <contour>
      <point x="232" y="700" type="line"/>
      <point x="162" y="467" type="line"/>
      <point x="42" y="467" type="line"/>
      <point x="112" y="700" type="line"/>
    </contour>
  </outline>
</glyph>
<glyph name="quotesinglbase" format="1">
  <advance width="274"/>
  <unicode hex="201A"/>
  <outline>
    <contour>
      <point x="232" y="133" type="line"/>
      <point x="162" y="-100" type="line"/>
      <point x="42" y="-100" type="line"/>
      <point x="112" y="133" type="line"/>
    </contour>
  </outline>
</glyph>
<glyph name="quotedblleft" format="1">
  <advance width="508"/>
  <unicode hex="201C"/>
  <outline>
    <contour>
      <point x="466" y="467" type="line"/>
      <point x="346" y="467" type="line"/>
      <point x="276" y="700" type="line"/>
      <point x="396" y="700" type="line"/>
    </contour>
    <contour>
      <point x="232" y="467" type="line"/>
      <point x="112" y="467" type="line"/>
      <point x="42" y="700" type="line"/>
      <point x="162" y="700" type="line"/>
    </contour>
  </outline>
</glyph>
<glyph name="quotedblright" format="1">
  <advance width="508"/>
  <unicode hex="201D"/>
  <outline>
    <contour>
      <point x="466" y="700" type="line"/>
      <point x="396" y="467" type="line"/>
      <point x="276" y="467" type="line"/>
      <point x="346" y="700" type="line"/>
    </contour>
    <contour>
      <point x="232" y="700" type="line"/>
      <point x="162" y="467" type="line"/>
      <point x="42" y="467" type="line"/>
      <point x="112" y="700" type="line"/>
    </contour>
  </outline>
</glyph>
<glyph name="quotedblbase" format="1">
  <advance width="508"/>
  <unicode hex="201E"/>
  <outline>
    <contour>
      <point x="466" y="133" type="line"/>
      <point x="396" y="-100" type="line"/>
      <point x="276" y="-100" type="line"/>
      <point x="346" y="133" type="line"/>
    </contour>
    <contour>
      <point x="232" y="133" type="line"/>
      <point x="162" y="-100" type="line"/>
      <point x="42" y="-100" type="line"/>
      <point x="112" y="133" type="line"/>
    </contour>
  </outline>
</glyph>
<glyph name="ellipsis" format="1">
  <advance width="768"/>
  <unicode hex="2026"/>
  <outline>
    <contour>
      <point x="707" y="0" type="line"/>
      <point x="573" y="0" type="line"/>
      <point x="573" y="133" type="line"/>
      <point x="707" y="133" type="line"/>
    </contour>
    <contour>
      <point x="451" y="0" type="line"/>
      <point x="317" y="0" type="line"/>
      <point x="317" y="133" type="line"/>
      <point x="451" y="133" type="line"/>
    </contour>
    <contour>
      <point x="195" y="0" type="line"/>
      <point x="61" y="0" type="line"/>
      <point x="61" y="133" type="line"/>
      <point x="195" y="133" type="line"/>
    </contour>
  </outline>
</glyph>
<glyph name="guilsinglleft" format="1">
  <advance width="385"/>
  <unicode hex="2039"/>
  <outline>
    <contour>
      <point x="347" y="83" type="curve"/>
      <point x="226" y="83" type="line"/>
      <point x="189" y="208"/>
      <point x="130" y="271"/>
      <point x="30" y="308" type="curve"/>
      <point x="30" y="386" type="line"/>
      <point x="130" y="423"/>
      <point x="189" y="484"/>
      <point x="226" y="613" type="curve"/>
      <point x="347" y="613" type="line"/>
      <point x="316" y="475"/>
      <point x="252" y="391"/>
      <point x="177" y="348" type="curve"/>
      <point x="252" y="305"/>
      <point x="316" y="221"/>
    </contour>
  </outline>
</glyph>
<glyph name="guilsinglright" format="1">
  <advance width="385"/>
  <unicode hex="203A"/>
  <outline>
    <contour>
      <point x="355" y="310" type="line"/>
      <point x="255" y="273"/>
      <point x="196" y="212"/>
      <point x="159" y="83" type="curve"/>
      <point x="38" y="83" type="line"/>
      <point x="69" y="221"/>
      <point x="133" y="305"/>
      <point x="208" y="348" type="curve"/>
      <point x="133" y="391"/>
      <point x="69" y="475"/>
      <point x="38" y="613" type="curve"/>
      <point x="159" y="613" type="line"/>
      <point x="196" y="488"/>
      <point x="255" y="425"/>
      <point x="355" y="388" type="curve"/>
    </contour>
  </outline>
</glyph>
<glyph name="fraction" format="1">
  <advance width="363"/>
  <unicode hex="2044"/>
  <unicode hex="2215"/>
  <outline>
    <contour>
      <point x="398" y="700" type="line"/>
      <point x="88" y="0" type="line"/>
      <point x="-35" y="0" type="line"/>
      <point x="275" y="700" type="line"/>
    </contour>
  </outline>
</glyph>
<glyph name="Euro" format="1">
  <advance width="570"/>
  <unicode hex="20AC"/>
  <outline>
    <contour>
      <point x="78" y="237" type="line"/>
      <point x="76" y="251"/>
      <point x="74" y="265"/>
      <point x="73" y="280" type="curve"/>
      <point x="17" y="254" type="line"/>
      <point x="17" y="348" type="line"/>
      <point x="70" y="373" type="line"/>
      <point x="75" y="587"/>
      <point x="154" y="710"/>
      <point x="325" y="710" type="curve" smooth="yes"/>
      <point x="415" y="710"/>
      <point x="493" y="679"/>
      <point x="534" y="626" type="curve"/>
      <point x="502" y="584"/>
      <point x="489" y="540"/>
      <point x="489" y="480" type="curve"/>
      <point x="372" y="480" type="line"/>
      <point x="372" y="515"/>
      <point x="382" y="552"/>
      <point x="399" y="578" type="curve"/>
      <point x="384" y="588"/>
      <point x="360" y="593"/>
      <point x="323" y="593" type="curve" smooth="yes"/>
      <point x="245" y="593"/>
      <point x="208" y="540"/>
      <point x="197" y="432" type="curve"/>
      <point x="328" y="493" type="line"/>
      <point x="328" y="401" type="line"/>
      <point x="194" y="338" type="line"/>
      <point x="194" y="322"/>
      <point x="195" y="307"/>
      <point x="196" y="292" type="curve"/>
      <point x="328" y="354" type="line"/>
      <point x="328" y="262" type="line"/>
      <point x="210" y="206" type="line"/>
      <point x="228" y="143"/>
      <point x="263" y="107"/>
      <point x="325" y="107" type="curve" smooth="yes"/>
      <point x="395" y="107"/>
      <point x="432" y="147"/>
      <point x="432" y="213" type="curve" smooth="yes"/>
      <point x="432" y="235"/>
      <point x="427" y="263"/>
      <point x="413" y="289" type="curve"/>
      <point x="532" y="276" type="line"/>
      <point x="542" y="249"/>
      <point x="546" y="222"/>
      <point x="546" y="195" type="curve" smooth="yes"/>
      <point x="546" y="80"/>
      <point x="469" y="-10"/>
      <point x="323" y="-10" type="curve" smooth="yes"/>
      <point x="207" y="-10"/>
      <point x="135" y="50"/>
      <point x="98" y="153" type="curve"/>
      <point x="17" y="115" type="line"/>
      <point x="17" y="209" type="line"/>
    </contour>
  </outline>
</glyph>
<glyph name="radical" format="1">
  <advance width="560"/>
  <unicode hex="221A"/>
  <outline>
    <contour>
      <point x="544" y="618" type="line"/>
      <point x="422" y="492"/>
      <point x="347" y="279"/>
      <point x="323" y="0" type="curve"/>
      <point x="209" y="0" type="line"/>
      <point x="176" y="119"/>
      <point x="124" y="190"/>
      <point x="8" y="261" type="curve"/>
      <point x="72" y="373" type="line"/>
      <point x="163" y="317"/>
      <point x="226" y="251"/>
      <point x="250" y="166" type="curve"/>
      <point x="270" y="372"/>
      <point x="353" y="605"/>
      <point x="468" y="710" type="curve"/>
    </contour>
  </outline>
</glyph>
<glyph name="apple" format="1">
  <advance width="1556"/>
  <unicode hex="F8FF"/>
  <outline>
    <contour>
      <point x="1556" y="350" type="line"/>
      <point x="1324" y="169" type="line"/>
      <point x="1162" y="292" type="line"/>
      <point x="779" y="-10" type="line"/>
      <point x="394" y="292" type="line"/>
      <point x="233" y="169" type="line"/>
      <point x="0" y="350" type="line"/>
      <point x="233" y="532" type="line"/>
      <point x="393" y="408" type="line"/>
      <point x="779" y="710" type="line"/>
      <point x="1162" y="408" type="line"/>
      <point x="1324" y="532" type="line"/>
    </contour>
    <contour>
      <point x="1415" y="348" type="line"/>
      <point x="1323" y="418" type="line"/>
      <point x="1236" y="350" type="line"/>
      <point x="1323" y="282" type="line"/>
    </contour>
    <contour>
      <point x="1086" y="350" type="line"/>
      <point x="778" y="585" type="line"/>
      <point x="470" y="350" type="line"/>
      <point x="778" y="115" type="line"/>
    </contour>
    <contour>
      <point x="320" y="350" type="line"/>
      <point x="233" y="418" type="line"/>
      <point x="141" y="348" type="line"/>
      <point x="233" y="282" type="line"/>
    </contour>
  </outline>
</glyph>
<glyph name="Q.salt" format="1">
  <advance width="590"/>
  <outline>
    <contour>
      <point x="542" y="76" type="line"/>
      <point x="529" y="29"/>
      <point x="500" y="-10"/>
      <point x="417" y="-10" type="curve" smooth="yes"/>
      <point x="381" y="-10"/>
      <point x="337" y="-2"/>
      <point x="309" y="6" type="curve" smooth="yes"/>
      <point x="57" y="74" type="line"/>
      <point x="57" y="160" type="line"/>
      <point x="275" y="160"/>
      <point x="417" y="269"/>
      <point x="417" y="435" type="curve" smooth="yes"/>
      <point x="417" y="549"/>
      <point x="371" y="602"/>
      <point x="287" y="602" type="curve" smooth="yes"/>
      <point x="203" y="602"/>
      <point x="157" y="553"/>
      <point x="157" y="490" type="curve" smooth="yes"/>
      <point x="157" y="433"/>
      <point x="185" y="399"/>
      <point x="231" y="399" type="curve" smooth="yes"/>
      <point x="263" y="399"/>
      <point x="287" y="412"/>
      <point x="312" y="439" type="curve"/>
      <point x="355" y="360" type="line"/>
      <point x="321" y="321"/>
      <point x="275" y="293"/>
      <point x="217" y="293" type="curve" smooth="yes"/>
      <point x="112" y="293"/>
      <point x="45" y="363"/>
      <point x="45" y="484" type="curve" smooth="yes"/>
      <point x="45" y="618"/>
      <point x="132" y="710"/>
      <point x="290" y="710" type="curve" smooth="yes"/>
      <point x="447" y="710"/>
      <point x="539" y="621"/>
      <point x="539" y="437" type="curve" smooth="yes"/>
      <point x="539" y="272"/>
      <point x="409" y="151"/>
      <point x="271" y="119" type="curve"/>
      <point x="368" y="99" type="line" smooth="yes"/>
      <point x="378" y="97"/>
      <point x="398" y="94"/>
      <point x="408" y="94" type="curve" smooth="yes"/>
      <point x="434" y="94"/>
      <point x="461" y="111"/>
      <point x="468" y="153" type="curve"/>
    </contour>
  </outline>
</glyph>
<glyph name="T.salt" format="1">
  <advance width="585"/>
  <outline>
    <contour>
      <point x="543" y="195" type="curve" smooth="yes"/>
      <point x="543" y="69"/>
      <point x="447" y="-10"/>
      <point x="311" y="-10" type="curve" smooth="yes"/>
      <point x="151" y="-10"/>
      <point x="54" y="81"/>
      <point x="54" y="273" type="curve" smooth="yes"/>
      <point x="54" y="414"/>
      <point x="137" y="525"/>
      <point x="244" y="588" type="curve"/>
      <point x="56" y="588" type="line"/>
      <point x="56" y="700" type="line"/>
      <point x="535" y="700" type="line"/>
      <point x="535" y="597" type="line"/>
      <point x="331" y="576"/>
      <point x="178" y="437"/>
      <point x="178" y="275" type="curve" smooth="yes"/>
      <point x="178" y="148"/>
      <point x="232" y="106"/>
      <point x="314" y="106" type="curve" smooth="yes"/>
      <point x="385" y="106"/>
      <point x="429" y="144"/>
      <point x="429" y="213" type="curve" smooth="yes"/>
      <point x="429" y="235"/>
      <point x="424" y="263"/>
      <point x="410" y="289" type="curve"/>
      <point x="529" y="276" type="line"/>
      <point x="539" y="249"/>
      <point x="543" y="222"/>
    </contour>
  </outline>
</glyph>
<glyph name="Z.salt" format="1">
  <advance width="579"/>
  <outline>
    <contour>
      <point x="535" y="180" type="curve" smooth="yes"/>
      <point x="535" y="65"/>
      <point x="491" y="-10"/>
      <point x="342" y="-10" type="curve" smooth="yes"/>
      <point x="271" y="-10"/>
      <point x="187" y="6"/>
      <point x="134" y="6" type="curve" smooth="yes"/>
      <point x="89" y="6"/>
      <point x="44" y="4"/>
      <point x="8" y="-4" type="curve"/>
      <point x="339" y="587" type="line"/>
      <point x="303" y="582"/>
      <point x="258" y="580"/>
      <point x="216" y="580" type="curve" smooth="yes"/>
      <point x="161" y="580"/>
      <point x="106" y="585"/>
      <point x="58" y="592" type="curve"/>
      <point x="58" y="704" type="line"/>
      <point x="128" y="697"/>
      <point x="199" y="692"/>
      <point x="277" y="692" type="curve" smooth="yes"/>
      <point x="369" y="692"/>
      <point x="461" y="695"/>
      <point x="526" y="704" type="curve"/>
      <point x="195" y="111" type="line"/>
      <point x="245" y="114"/>
      <point x="282" y="104"/>
      <point x="336" y="104" type="curve" smooth="yes"/>
      <point x="404" y="104"/>
      <point x="421" y="132"/>
      <point x="421" y="198" type="curve" smooth="yes"/>
      <point x="421" y="223"/>
      <point x="415" y="243"/>
      <point x="402" y="269" type="curve"/>
      <point x="521" y="256" type="line"/>
      <point x="531" y="229"/>
      <point x="535" y="207"/>
    </contour>
  </outline>
</glyph>
<glyph name="ampersand.salt" format="1">
  <advance width="778"/>
  <outline>
    <contour>
      <point x="750" y="547" type="curve" smooth="yes"/>
      <point x="750" y="445"/>
      <point x="695" y="413"/>
      <point x="569" y="380" type="curve"/>
      <point x="449" y="668" type="line"/>
      <point x="493" y="692"/>
      <point x="535" y="710"/>
      <point x="595" y="710" type="curve" smooth="yes"/>
      <point x="687" y="710"/>
      <point x="750" y="656"/>
    </contour>
    <contour>
      <point x="522" y="350" type="line"/>
      <point x="478" y="313" type="line"/>
      <point x="336" y="415" type="line"/>
      <point x="363" y="370" type="line" smooth="yes"/>
      <point x="385" y="334"/>
      <point x="394" y="299"/>
      <point x="394" y="261" type="curve" smooth="yes"/>
      <point x="394" y="230"/>
      <point x="381" y="201"/>
      <point x="353" y="171" type="curve"/>
      <point x="318" y="213" type="line"/>
      <point x="333" y="232"/>
      <point x="338" y="244"/>
      <point x="338" y="269" type="curve" smooth="yes"/>
      <point x="338" y="296"/>
      <point x="317" y="340"/>
      <point x="294" y="380" type="curve" smooth="yes"/>
      <point x="242" y="473" type="line"/>
      <point x="279" y="519" type="line"/>
      <point x="440" y="404" type="line"/>
      <point x="337" y="602" type="line"/>
      <point x="390" y="636" type="line"/>
    </contour>
    <contour>
      <point x="321" y="120" type="line"/>
      <point x="279" y="76" type="line"/>
      <point x="230" y="151" type="line"/>
      <point x="231" y="151"/>
      <point x="134" y="65"/>
      <point x="134" y="65" type="curve"/>
      <point x="134" y="0" type="line"/>
      <point x="78" y="0" type="line"/>
      <point x="78" y="281" type="line"/>
      <point x="61" y="279"/>
      <point x="43" y="277"/>
      <point x="26" y="277" type="curve"/>
      <point x="26" y="335" type="line"/>
      <point x="104" y="335"/>
      <point x="164" y="359"/>
      <point x="203" y="416" type="curve"/>
      <point x="238" y="368" type="line"/>
      <point x="227" y="351"/>
      <point x="211" y="335"/>
      <point x="190" y="322" type="curve"/>
    </contour>
    <contour>
      <point x="689" y="539" type="curve" smooth="yes"/>
      <point x="689" y="608"/>
      <point x="655" y="653"/>
      <point x="588" y="653" type="curve" smooth="yes"/>
      <point x="566" y="653"/>
      <point x="543" y="646"/>
      <point x="528" y="638" type="curve"/>
      <point x="606" y="452" type="line"/>
      <point x="663" y="467"/>
      <point x="689" y="487"/>
    </contour>
    <contour>
      <point x="202" y="195" type="line"/>
      <point x="134" y="299" type="line"/>
      <point x="134" y="135" type="line"/>
    </contour>
  </outline>
</glyph>
<glyph name="bullet" format="1">
  <advance width="475"/>
  <outline>
    <contour>
      <point x="400" y="190" type="line"/>
      <point x="75" y="190" type="line"/>
      <point x="75" y="511" type="line"/>
      <point x="400" y="511" type="line"/>
    </contour>
  </outline>
</glyph>
<glyph name="eight.salt" format="1">
  <advance width="532"/>
  <outline>
    <contour>
      <point x="511" y="700" type="line"/>
      <point x="498" y="575"/>
      <point x="431" y="482"/>
      <point x="357" y="423" type="curve"/>
      <point x="440" y="368"/>
      <point x="492" y="305"/>
      <point x="492" y="211" type="curve" smooth="yes"/>
      <point x="492" y="83"/>
      <point x="397" y="-10"/>
      <point x="265" y="-10" type="curve" smooth="yes"/>
      <point x="123" y="-10"/>
      <point x="40" y="79"/>
      <point x="40" y="210" type="curve" smooth="yes"/>
      <point x="40" y="303"/>
      <point x="89" y="365"/>
      <point x="175" y="422" type="curve"/>
      <point x="99" y="483"/>
      <point x="35" y="573"/>
      <point x="21" y="700" type="curve"/>
    </contour>
    <contour>
      <point x="371" y="608" type="curve"/>
      <point x="163" y="608" type="line"/>
      <point x="182" y="559"/>
      <point x="210" y="517"/>
      <point x="267" y="478" type="curve"/>
      <point x="325" y="518"/>
      <point x="355" y="564"/>
    </contour>
    <contour>
      <point x="372" y="208" type="curve" smooth="yes"/>
      <point x="372" y="266"/>
      <point x="350" y="306"/>
      <point x="266" y="362" type="curve"/>
      <point x="187" y="310"/>
      <point x="160" y="269"/>
      <point x="160" y="213" type="curve" smooth="yes"/>
      <point x="160" y="145"/>
      <point x="195" y="103"/>
      <point x="267" y="103" type="curve" smooth="yes"/>
      <point x="336" y="103"/>
      <point x="372" y="148"/>
    </contour>
  </outline>
</glyph>
<glyph name="seven.salt" format="1">
  <advance width="512"/>
  <outline>
    <contour>
      <point x="505" y="700" type="line"/>
      <point x="377" y="517"/>
      <point x="316" y="377"/>
      <point x="316" y="228" type="curve" smooth="yes"/>
      <point x="316" y="180"/>
      <point x="324" y="135"/>
      <point x="343" y="95" type="curve"/>
      <point x="256" y="-18" type="line"/>
      <point x="214" y="49"/>
      <point x="197" y="106"/>
      <point x="197" y="190" type="curve" smooth="yes"/>
      <point x="197" y="340"/>
      <point x="247" y="468"/>
      <point x="326" y="603" type="curve"/>
      <point x="164" y="603" type="line"/>
      <point x="168" y="587"/>
      <point x="171" y="570"/>
      <point x="171" y="552" type="curve" smooth="yes"/>
      <point x="171" y="533"/>
      <point x="170" y="513"/>
      <point x="165" y="494" type="curve"/>
      <point x="54" y="469" type="line"/>
      <point x="58" y="491"/>
      <point x="60" y="525"/>
      <point x="60" y="546" type="curve" smooth="yes"/>
      <point x="60" y="606"/>
      <point x="41" y="658"/>
      <point x="16" y="700" type="curve"/>
    </contour>
  </outline>
</glyph>
<glyph name="uni2022.ornm_center" format="1">
  <advance width="1556"/>
  <outline>
    <contour>
      <point x="1556.0" y="350.0" type="line"/>
      <point x="1324.0" y="169.0" type="line"/>
      <point x="1162.0" y="292.0" type="line"/>
      <point x="779.0" y="-10.0" type="line"/>
      <point x="394.0" y="292.0" type="line"/>
      <point x="233.0" y="169.0" type="line"/>
      <point x="0.0" y="350.0" type="line"/>
      <point x="233.0" y="532.0" type="line"/>
      <point x="393.0" y="408.0" type="line"/>
      <point x="779.0" y="710.0" type="line"/>
      <point x="1162.0" y="408.0" type="line"/>
      <point x="1324.0" y="532.0" type="line"/>
    </contour>
    <contour>
      <point x="1415.0" y="348.0" type="line"/>
      <point x="1323.0" y="418.0" type="line"/>
      <point x="1236.0" y="350.0" type="line"/>
      <point x="1323.0" y="282.0" type="line"/>
    </contour>
    <contour>
      <point x="1086.0" y="350.0" type="line"/>
      <point x="778.0" y="585.0" type="line"/>
      <point x="470.0" y="350.0" type="line"/>
      <point x="778.0" y="115.0" type="line"/>
    </contour>
    <contour>
      <point x="320.0" y="350.0" type="line"/>
      <point x="233.0" y="418.0" type="line"/>
      <point x="141.0" y="348.0" type="line"/>
      <point x="233.0" y="282.0" type="line"/>
    </contour>
  </outline>
</glyph>
<glyph name="uni2022.ornm_left" format="1">
  <advance width="912"/>
  <outline>
    <contour>
      <point x="832" y="-10" type="line"/>
      <point x="418" y="293" type="line"/>
      <point x="247" y="170" type="line"/>
      <point x="0" y="350" type="line"/>
      <point x="247" y="531" type="line"/>
      <point x="417" y="407" type="line"/>
      <point x="832" y="710" type="line"/>
    </contour>
    <contour>
      <point x="728" y="186" type="line"/>
      <point x="728" y="514" type="line"/>
      <point x="498" y="350" type="line"/>
    </contour>
    <contour>
      <point x="338" y="350" type="line"/>
      <point x="247" y="417" type="line"/>
      <point x="149" y="352" type="line"/>
      <point x="247" y="283" type="line"/>
    </contour>
  </outline>
</glyph>
<glyph name="uni2022.ornm_right" format="1">
  <advance width="912"/>
  <outline>
    <contour>
      <point x="912" y="350" type="line"/>
      <point x="665" y="169" type="line"/>
      <point x="495" y="293" type="line"/>
      <point x="80" y="-10" type="line"/>
      <point x="80" y="710" type="line"/>
      <point x="494" y="407" type="line"/>
      <point x="665" y="530" type="line"/>
    </contour>
    <contour>
      <point x="763" y="348" type="line"/>
      <point x="665" y="417" type="line"/>
      <point x="574" y="350" type="line"/>
      <point x="665" y="283" type="line"/>
    </contour>
    <contour>
      <point x="414" y="350" type="line"/>
      <point x="184" y="514" type="line"/>
      <point x="184" y="186" type="line"/>
    </contour>
  </outline>
</glyph>
<glyph name="uni2022.ornm_stacked" format="1">
  <advance width="501"/>
  <outline>
    <contour>
      <point x="465" y="200" type="line"/>
      <point x="250" y="-10" type="line"/>
      <point x="35" y="200" type="line"/>
      <point x="181" y="350" type="line"/>
      <point x="35" y="500" type="line"/>
      <point x="250" y="710" type="line"/>
      <point x="465" y="500" type="line"/>
      <point x="318" y="350" type="line"/>
    </contour>
    <contour>
      <point x="326" y="498" type="line"/>
      <point x="250" y="579" type="line"/>
      <point x="173" y="498" type="line"/>
      <point x="250" y="417" type="line"/>
    </contour>
    <contour>
      <point x="326" y="202" type="line"/>
      <point x="250" y="283" type="line"/>
      <point x="173" y="202" type="line"/>
      <point x="250" y="121" type="line"/>
    </contour>
  </outline>
</glyph>
